<?xml version="1.0" standalone="no"?>
<!DOCTYPE svg PUBLIC "-//W3C//DTD SVG 20010904//EN"
 "http://www.w3.org/TR/2001/REC-SVG-20010904/DTD/svg10.dtd">
<svg version="1.0" xmlns="http://www.w3.org/2000/svg"
 width="852.000000pt" height="852.000000pt" viewBox="0 0 852.000000 852.000000"
 preserveAspectRatio="xMidYMid meet">
<metadata>
Created by potrace 1.14, written by Peter Selinger 2001-2017
</metadata>
<g transform="translate(0.000000,852.000000) scale(0.100000,-0.100000)"
fill="#000000" stroke="none">
<path d="M3965 8499 c-411 -27 -885 -135 -1300 -296 -215 -84 -522 -247 -743
-395 -280 -187 -457 -334 -702 -584 -227 -231 -351 -386 -522 -649 -284 -436
-441 -804 -577 -1350 -93 -375 -131 -878 -97 -1275 49 -569 155 -989 367
-1453 167 -365 524 -904 710 -1071 132 -118 424 -287 609 -351 301 -104 570
-141 960 -132 249 7 367 20 623 73 718 147 1344 405 2062 852 398 248 782 543
1076 827 216 209 323 287 465 335 329 113 400 -325 137 -844 -164 -326 -389
-614 -728 -936 -289 -275 -682 -545 -1040 -716 -318 -152 -516 -221 -833 -293
-232 -52 -277 -69 -302 -114 -13 -24 -13 -30 0 -54 35 -64 112 -74 405 -53
590 43 1106 181 1600 428 458 228 797 471 1140 816 329 331 559 648 771 1061
314 612 464 1240 464 1940 0 242 -10 386 -41 605 -93 651 -320 1235 -700 1795
-334 491 -839 965 -1334 1250 -290 167 -532 280 -780 363 -560 187 -1104 259
-1690 221z m495 -439 c407 -22 795 -103 1170 -247 485 -186 913 -460 1286
-826 269 -263 422 -455 600 -751 219 -364 367 -721 450 -1087 111 -490 132
-912 69 -1399 -24 -180 -24 -180 -55 -40 -52 230 -117 394 -217 543 -191 284
-452 423 -726 387 -260 -34 -427 -130 -745 -427 -362 -339 -747 -627 -1126
-844 -71 -41 -147 -90 -170 -110 -38 -34 -43 -43 -54 -110 -30 -174 -164 -354
-322 -431 -226 -111 -474 -84 -671 73 -43 34 -99 34 -304 -2 -177 -31 -205
-33 -415 -34 -176 0 -244 4 -315 18 -257 51 -404 134 -434 244 -25 91 34 170
165 219 100 38 105 54 37 120 -104 101 -185 130 -348 121 -231 -11 -482 -135
-697 -345 -205 -199 -338 -449 -378 -707 -16 -103 -16 -283 0 -408 7 -54 11
-100 8 -102 -7 -8 -139 175 -221 305 -93 148 -236 428 -306 599 -196 476 -305
1070 -287 1556 18 481 129 984 310 1404 279 645 791 1251 1401 1658 374 249
767 422 1187 523 206 49 527 90 803 103 33 2 71 4 85 5 14 1 113 -3 220 -8z"/>
<path d="M4490 7467 c-11 -17 -20 -37 -20 -44 0 -25 -52 -72 -104 -93 -84 -34
-84 -68 0 -89 50 -13 88 -47 99 -89 10 -41 33 -72 55 -72 14 0 24 15 41 60 22
62 40 79 100 99 20 6 44 20 54 31 24 26 9 44 -56 65 -55 18 -78 43 -103 108
-22 59 -41 66 -66 24z"/>
<path d="M5575 6976 c-13 -13 -31 -48 -39 -77 -32 -108 -60 -135 -178 -176
-74 -25 -98 -43 -98 -74 0 -29 27 -48 102 -70 97 -30 130 -61 168 -162 33 -84
54 -117 76 -117 23 0 61 57 78 119 23 81 60 116 173 161 77 30 88 38 91 61 4
34 -16 53 -75 74 -27 10 -60 22 -75 27 -48 18 -86 67 -114 147 -25 70 -53 111
-76 111 -5 0 -20 -11 -33 -24z"/>
<path d="M2320 6905 c-257 -40 -434 -116 -612 -262 -115 -94 -248 -252 -248
-295 0 -23 34 -24 74 -3 58 30 193 73 269 85 188 31 396 -25 551 -146 156
-123 316 -370 422 -652 22 -56 48 -114 60 -129 20 -25 25 -26 105 -25 46 1
167 13 268 27 101 14 190 25 198 23 8 -2 -93 -56 -224 -120 -131 -64 -250
-128 -265 -141 -37 -34 -42 -101 -24 -313 12 -134 36 -542 36 -606 0 -43 121
-50 351 -19 180 25 340 36 319 23 -8 -6 -141 -60 -295 -121 -261 -104 -356
-148 -370 -171 -13 -21 -26 -129 -40 -345 -8 -126 -24 -313 -36 -414 -18 -156
-19 -186 -7 -197 39 -40 349 -41 613 -3 181 26 205 33 239 68 22 23 30 44 38
102 19 141 30 180 69 259 91 182 277 299 500 316 195 14 408 -81 514 -230 22
-30 47 -55 56 -56 21 0 187 82 314 155 393 226 663 462 719 628 20 60 21 165
1 241 -46 174 -201 432 -416 691 -111 134 -426 446 -572 568 -707 591 -1454
972 -2078 1062 -130 18 -410 18 -529 0z"/>
<path d="M6725 5968 c-8 -13 -27 -59 -41 -103 -49 -156 -78 -185 -249 -245
-85 -30 -101 -39 -109 -62 -6 -18 -6 -38 0 -55 8 -24 23 -33 116 -64 164 -55
192 -83 248 -252 33 -100 46 -117 94 -117 34 0 62 40 88 124 28 96 50 137 91
173 34 30 55 39 187 85 79 28 104 61 80 105 -15 27 -33 35 -184 88 -92 33
-134 86 -174 221 -28 92 -53 124 -97 124 -24 0 -39 -7 -50 -22z"/>
<path d="M1944 5578 c-28 -59 -34 -65 -97 -96 -55 -27 -67 -37 -67 -57 0 -20
8 -26 53 -39 63 -18 81 -36 103 -99 30 -87 68 -90 96 -7 23 68 30 74 103 103
80 31 83 50 13 82 -67 31 -91 56 -115 120 -27 74 -50 72 -89 -7z"/>
<path d="M953 5165 c-13 -9 -32 -46 -47 -93 -35 -103 -66 -133 -176 -170 -71
-23 -86 -32 -94 -55 -14 -38 12 -62 98 -89 96 -31 132 -68 175 -181 32 -86 39
-93 81 -87 23 2 38 28 63 104 28 89 64 125 156 161 93 35 116 54 108 87 -5 18
-20 31 -56 47 -27 11 -55 21 -62 21 -7 0 -32 11 -56 25 -46 27 -68 62 -98 154
-16 50 -45 91 -63 91 -4 0 -17 -7 -29 -15z"/>
<path d="M1933 4635 c-13 -9 -33 -49 -52 -107 -17 -51 -40 -107 -51 -125 -30
-50 -92 -89 -196 -123 -110 -37 -135 -60 -114 -109 13 -33 52 -54 163 -91 111
-36 152 -84 203 -234 31 -89 49 -116 78 -116 45 0 73 35 105 132 17 50 42 108
57 129 28 40 111 90 184 109 25 7 62 21 82 31 32 17 38 24 38 52 0 47 -29 70
-140 108 -130 45 -174 88 -218 214 -18 50 -38 101 -45 115 -15 30 -62 38 -94
15z"/>
<path d="M4110 3463 c-56 -63 -75 -117 -75 -213 0 -66 5 -96 22 -131 27 -60
88 -121 155 -156 72 -37 188 -39 263 -5 65 30 122 85 151 147 35 73 32 77 -32
48 -49 -22 -66 -25 -138 -21 -96 5 -163 35 -219 97 -57 63 -80 116 -83 195 -2
37 -5 70 -7 73 -2 2 -19 -13 -37 -34z"/>
</g>
</svg>
