<svg id="visual" viewBox="0 0 1920 1080" width="1920" height="1080" xmlns="http://www.w3.org/2000/svg" xmlns:xlink="http://www.w3.org/1999/xlink" version="1.1"><rect x="0" y="0" width="1920" height="1080" fill="#fff"></rect><path d="M0 751L45.7 747.3C91.3 743.7 182.7 736.3 274.2 731C365.7 725.7 457.3 722.3 548.8 717.7C640.3 713 731.7 707 823 708C914.3 709 1005.7 717 1097 725.7C1188.3 734.3 1279.7 743.7 1371.2 747C1462.7 750.3 1554.3 747.7 1645.8 746.7C1737.3 745.7 1828.7 746.3 1874.3 746.7L1920 747L1920 1081L1874.3 1081C1828.7 1081 1737.3 1081 1645.8 1081C1554.3 1081 1462.7 1081 1371.2 1081C1279.7 1081 1188.3 1081 1097 1081C1005.7 1081 914.3 1081 823 1081C731.7 1081 640.3 1081 548.8 1081C457.3 1081 365.7 1081 274.2 1081C182.7 1081 91.3 1081 45.7 1081L0 1081Z" fill="#fede5a"></path><path d="M0 710L45.7 716.7C91.3 723.3 182.7 736.7 274.2 750.8C365.7 765 457.3 780 548.8 792.2C640.3 804.3 731.7 813.7 823 800.7C914.3 787.7 1005.7 752.3 1097 742.3C1188.3 732.3 1279.7 747.7 1371.2 747.2C1462.7 746.7 1554.3 730.3 1645.8 734.2C1737.3 738 1828.7 762 1874.3 774L1920 786L1920 1081L1874.3 1081C1828.7 1081 1737.3 1081 1645.8 1081C1554.3 1081 1462.7 1081 1371.2 1081C1279.7 1081 1188.3 1081 1097 1081C1005.7 1081 914.3 1081 823 1081C731.7 1081 640.3 1081 548.8 1081C457.3 1081 365.7 1081 274.2 1081C182.7 1081 91.3 1081 45.7 1081L0 1081Z" fill="#fb9349"></path><path d="M0 861L45.7 864.2C91.3 867.3 182.7 873.7 274.2 883C365.7 892.3 457.3 904.7 548.8 905.2C640.3 905.7 731.7 894.3 823 891C914.3 887.7 1005.7 892.3 1097 892.8C1188.3 893.3 1279.7 889.7 1371.2 882.2C1462.7 874.7 1554.3 863.3 1645.8 867.2C1737.3 871 1828.7 890 1874.3 899.5L1920 909L1920 1081L1874.3 1081C1828.7 1081 1737.3 1081 1645.8 1081C1554.3 1081 1462.7 1081 1371.2 1081C1279.7 1081 1188.3 1081 1097 1081C1005.7 1081 914.3 1081 823 1081C731.7 1081 640.3 1081 548.8 1081C457.3 1081 365.7 1081 274.2 1081C182.7 1081 91.3 1081 45.7 1081L0 1081Z" fill="#da4b56"></path><path d="M0 878L45.7 884.2C91.3 890.3 182.7 902.7 274.2 905.3C365.7 908 457.3 901 548.8 905.3C640.3 909.7 731.7 925.3 823 925.5C914.3 925.7 1005.7 910.3 1097 905.2C1188.3 900 1279.7 905 1371.2 907C1462.7 909 1554.3 908 1645.8 915.5C1737.3 923 1828.7 939 1874.3 947L1920 955L1920 1081L1874.3 1081C1828.7 1081 1737.3 1081 1645.8 1081C1554.3 1081 1462.7 1081 1371.2 1081C1279.7 1081 1188.3 1081 1097 1081C1005.7 1081 914.3 1081 823 1081C731.7 1081 640.3 1081 548.8 1081C457.3 1081 365.7 1081 274.2 1081C182.7 1081 91.3 1081 45.7 1081L0 1081Z" fill="#9a1063"></path><path d="M0 995L45.7 992C91.3 989 182.7 983 274.2 975.5C365.7 968 457.3 959 548.8 966C640.3 973 731.7 996 823 1004.3C914.3 1012.7 1005.7 1006.3 1097 999.7C1188.3 993 1279.7 986 1371.2 977.5C1462.7 969 1554.3 959 1645.8 953.8C1737.3 948.7 1828.7 948.3 1874.3 948.2L1920 948L1920 1081L1874.3 1081C1828.7 1081 1737.3 1081 1645.8 1081C1554.3 1081 1462.7 1081 1371.2 1081C1279.7 1081 1188.3 1081 1097 1081C1005.7 1081 914.3 1081 823 1081C731.7 1081 640.3 1081 548.8 1081C457.3 1081 365.7 1081 274.2 1081C182.7 1081 91.3 1081 45.7 1081L0 1081Z" fill="#3f0962"></path></svg>