<svg id="visual" viewBox="0 0 1920 1080" width="1920" height="1080" xmlns="http://www.w3.org/2000/svg" xmlns:xlink="http://www.w3.org/1999/xlink" version="1.1"><path d="M0 66L32 73.2C64 80.3 128 94.7 192 103.7C256 112.7 320 116.3 384 105.5C448 94.7 512 69.3 576 60.3C640 51.3 704 58.7 768 62.3C832 66 896 66 960 76.8C1024 87.7 1088 109.3 1152 118.3C1216 127.3 1280 123.7 1344 112.8C1408 102 1472 84 1536 89.3C1600 94.7 1664 123.3 1728 128.7C1792 134 1856 116 1888 107L1920 98L1920 0L1888 0C1856 0 1792 0 1728 0C1664 0 1600 0 1536 0C1472 0 1408 0 1344 0C1280 0 1216 0 1152 0C1088 0 1024 0 960 0C896 0 832 0 768 0C704 0 640 0 576 0C512 0 448 0 384 0C320 0 256 0 192 0C128 0 64 0 32 0L0 0Z" fill="#fafafa"></path><path d="M0 109L32 112.7C64 116.3 128 123.7 192 132.7C256 141.7 320 152.3 384 152.3C448 152.3 512 141.7 576 130.8C640 120 704 109 768 107.2C832 105.3 896 112.7 960 121.7C1024 130.7 1088 141.3 1152 161.2C1216 181 1280 210 1344 213.7C1408 217.3 1472 195.7 1536 186.7C1600 177.7 1664 181.3 1728 183.2C1792 185 1856 185 1888 185L1920 185L1920 96L1888 105C1856 114 1792 132 1728 126.7C1664 121.3 1600 92.7 1536 87.3C1472 82 1408 100 1344 110.8C1280 121.7 1216 125.3 1152 116.3C1088 107.3 1024 85.7 960 74.8C896 64 832 64 768 60.3C704 56.7 640 49.3 576 58.3C512 67.3 448 92.7 384 103.5C320 114.3 256 110.7 192 101.7C128 92.7 64 78.3 32 71.2L0 64Z" fill="#f9f9f9"></path><path d="M0 206L32 209.7C64 213.3 128 220.7 192 222.5C256 224.3 320 220.7 384 217C448 213.3 512 209.7 576 202.5C640 195.3 704 184.7 768 177.5C832 170.3 896 166.7 960 175.7C1024 184.7 1088 206.3 1152 228C1216 249.7 1280 271.3 1344 269.5C1408 267.7 1472 242.3 1536 236.8C1600 231.3 1664 245.7 1728 252.8C1792 260 1856 260 1888 260L1920 260L1920 183L1888 183C1856 183 1792 183 1728 181.2C1664 179.3 1600 175.7 1536 184.7C1472 193.7 1408 215.3 1344 211.7C1280 208 1216 179 1152 159.2C1088 139.3 1024 128.7 960 119.7C896 110.7 832 103.3 768 105.2C704 107 640 118 576 128.8C512 139.7 448 150.3 384 150.3C320 150.3 256 139.7 192 130.7C128 121.7 64 114.3 32 110.7L0 107Z" fill="#f8f8f8"></path><path d="M0 271L32 283.7C64 296.3 128 321.7 192 318C256 314.3 320 281.7 384 270.8C448 260 512 271 576 280C640 289 704 296 768 292.3C832 288.7 896 274.3 960 287C1024 299.7 1088 339.3 1152 359.2C1216 379 1280 379 1344 359.2C1408 339.3 1472 299.7 1536 288.8C1600 278 1664 296 1728 305C1792 314 1856 314 1888 314L1920 314L1920 258L1888 258C1856 258 1792 258 1728 250.8C1664 243.7 1600 229.3 1536 234.8C1472 240.3 1408 265.7 1344 267.5C1280 269.3 1216 247.7 1152 226C1088 204.3 1024 182.7 960 173.7C896 164.7 832 168.3 768 175.5C704 182.7 640 193.3 576 200.5C512 207.7 448 211.3 384 215C320 218.7 256 222.3 192 220.5C128 218.7 64 211.3 32 207.7L0 204Z" fill="#f8f8f8"></path><path d="M0 401L32 401C64 401 128 401 192 383C256 365 320 329 384 329C448 329 512 365 576 374C640 383 704 365 768 359.5C832 354 896 361 960 380.7C1024 400.3 1088 432.7 1152 450.7C1216 468.7 1280 472.3 1344 449C1408 425.7 1472 375.3 1536 355.5C1600 335.7 1664 346.3 1728 360.7C1792 375 1856 393 1888 402L1920 411L1920 312L1888 312C1856 312 1792 312 1728 303C1664 294 1600 276 1536 286.8C1472 297.7 1408 337.3 1344 357.2C1280 377 1216 377 1152 357.2C1088 337.3 1024 297.7 960 285C896 272.3 832 286.7 768 290.3C704 294 640 287 576 278C512 269 448 258 384 268.8C320 279.7 256 312.3 192 316C128 319.7 64 294.3 32 281.7L0 269Z" fill="#f7f7f7"></path><path d="M0 595L32 598.7C64 602.3 128 609.7 192 636.7C256 663.7 320 710.3 384 722.8C448 735.3 512 713.7 576 690.3C640 667 704 642 768 616.8C832 591.7 896 566.3 960 580.7C1024 595 1088 649 1152 685C1216 721 1280 739 1344 740.8C1408 742.7 1472 728.3 1536 721.2C1600 714 1664 714 1728 697.8C1792 681.7 1856 649.3 1888 633.2L1920 617L1920 409L1888 400C1856 391 1792 373 1728 358.7C1664 344.3 1600 333.7 1536 353.5C1472 373.3 1408 423.7 1344 447C1280 470.3 1216 466.7 1152 448.7C1088 430.7 1024 398.3 960 378.7C896 359 832 352 768 357.5C704 363 640 381 576 372C512 363 448 327 384 327C320 327 256 363 192 381C128 399 64 399 32 399L0 399Z" fill="#f3f3f3"></path><path d="M0 1005L32 996C64 987 128 969 192 947.5C256 926 320 901 384 890.3C448 879.7 512 883.3 576 883.3C640 883.3 704 879.7 768 892.2C832 904.7 896 933.3 960 936.8C1024 940.3 1088 918.7 1152 904.3C1216 890 1280 883 1344 883C1408 883 1472 890 1536 879.2C1600 868.3 1664 839.7 1728 836.2C1792 832.7 1856 854.3 1888 865.2L1920 876L1920 615L1888 631.2C1856 647.3 1792 679.7 1728 695.8C1664 712 1600 712 1536 719.2C1472 726.3 1408 740.7 1344 738.8C1280 737 1216 719 1152 683C1088 647 1024 593 960 578.7C896 564.3 832 589.7 768 614.8C704 640 640 665 576 688.3C512 711.7 448 733.3 384 720.8C320 708.3 256 661.7 192 634.7C128 607.7 64 600.3 32 596.7L0 593Z" fill="#eeeeee"></path><path d="M0 1038L32 1038C64 1038 128 1038 192 1025.3C256 1012.7 320 987.3 384 974.7C448 962 512 962 576 963.8C640 965.7 704 969.3 768 978.3C832 987.3 896 1001.7 960 996.3C1024 991 1088 966 1152 949.8C1216 933.7 1280 926.3 1344 935.3C1408 944.3 1472 969.7 1536 966C1600 962.3 1664 929.7 1728 913.3C1792 897 1856 897 1888 897L1920 897L1920 874L1888 863.2C1856 852.3 1792 830.7 1728 834.2C1664 837.7 1600 866.3 1536 877.2C1472 888 1408 881 1344 881C1280 881 1216 888 1152 902.3C1088 916.7 1024 938.3 960 934.8C896 931.3 832 902.7 768 890.2C704 877.7 640 881.3 576 881.3C512 881.3 448 877.7 384 888.3C320 899 256 924 192 945.5C128 967 64 985 32 994L0 1003Z" fill="#eaeaea"></path><path d="M0 1081L32 1081C64 1081 128 1081 192 1081C256 1081 320 1081 384 1081C448 1081 512 1081 576 1081C640 1081 704 1081 768 1081C832 1081 896 1081 960 1081C1024 1081 1088 1081 1152 1081C1216 1081 1280 1081 1344 1081C1408 1081 1472 1081 1536 1081C1600 1081 1664 1081 1728 1081C1792 1081 1856 1081 1888 1081L1920 1081L1920 895L1888 895C1856 895 1792 895 1728 911.3C1664 927.7 1600 960.3 1536 964C1472 967.7 1408 942.3 1344 933.3C1280 924.3 1216 931.7 1152 947.8C1088 964 1024 989 960 994.3C896 999.7 832 985.3 768 976.3C704 967.3 640 963.7 576 961.8C512 960 448 960 384 972.7C320 985.3 256 1010.7 192 1023.3C128 1036 64 1036 32 1036L0 1036Z" fill="#e6e6e6"></path></svg>