<?xml version="1.0" encoding="UTF-8" standalone="no"?>
<!DOCTYPE svg PUBLIC "-//W3C//DTD SVG 1.1//EN" "http://www.w3.org/Graphics/SVG/1.1/DTD/svg11.dtd">
<!-- Created with Vectornator (http://vectornator.io/) -->
<svg height="100%" stroke-miterlimit="10" style="fill-rule:nonzero;clip-rule:evenodd;stroke-linecap:round;stroke-linejoin:round;" version="1.1" viewBox="0 0 870 158" width="100%" xml:space="preserve" xmlns="http://www.w3.org/2000/svg" xmlns:vectornator="http://vectornator.io" xmlns:xlink="http://www.w3.org/1999/xlink">
<defs/>
<clipPath id="ArtboardFrame">
<rect height="158" width="870" x="0" y="0"/>
</clipPath>
<g clip-path="url(#ArtboardFrame)" id="Layer-2" vectornator:layerName="Layer 2">
<g opacity="1" vectornator:layerName="Group 1">
<path d="M70.6172 14.843C67.3519 15.1748 64.6892 15.5618 62.629 16.0041C60.5687 16.4465 58.8001 16.8888 57.3229 17.3311C55.8458 17.7735 54.1743 18.3448 52.3084 19.0452C50.4426 19.7455 48.8683 20.3906 47.5855 20.9803C46.3027 21.5701 44.4174 22.5838 41.9296 24.0214C39.4418 25.4589 36.954 27.1177 34.4662 28.9976C31.9784 30.8775 29.5683 32.997 27.236 35.356C24.9037 37.7151 22.9406 39.9452 21.3469 42.0463C19.7531 44.1473 18.587 45.7876 17.8484 46.9672C17.1098 48.1467 16.313 49.5474 15.4578 51.1693C14.6026 52.7912 13.8252 54.4315 13.1255 56.0902C12.4258 57.749 11.8038 59.4077 11.2596 61.0664C10.7154 62.7252 10.1518 64.9368 9.56867 67.7014C8.98559 70.4659 8.59687 72.9172 8.40251 75.0551C8.20815 77.193 8.11097 79.1098 8.11097 80.8054C8.11097 82.501 8.20815 84.4177 8.40251 86.5557C8.59687 88.6936 9.00503 91.2001 9.62698 94.0753C10.2489 96.9504 11.0264 99.6965 11.9593 102.314C12.8922 104.931 14.039 107.548 15.3995 110.165C16.76 112.782 17.9845 114.902 19.0729 116.523C20.1613 118.145 22.291 123.839 23.185 124.945C23.6321 125.498 148.879 94.5061 149.19 92.0364C149.501 89.5667 149.414 84.0835 149.453 81.7981C149.492 79.5128 148.419 77.193 148.225 75.0551C148.031 72.9172 147.642 70.4659 147.059 67.7014C146.476 64.9368 145.834 62.5224 145.135 60.4582C144.435 58.394 143.502 56.1271 142.336 53.6574C141.17 51.1877 139.751 48.6628 138.08 46.0825C136.408 43.5023 134.931 41.4381 133.648 39.8899C132.365 38.3418 130.752 36.6093 128.809 34.6926C126.865 32.7758 124.999 31.1171 123.211 29.7163C121.423 28.3156 119.324 26.8596 116.914 25.3483C114.504 23.8371 112.269 22.5838 110.208 21.5885C108.148 20.5933 105.777 19.6165 103.095 18.6581C100.413 17.6997 97.711 16.9072 94.9899 16.2806C92.2689 15.654 89.645 15.1932 87.1183 14.8983C84.5916 14.6034 82.0261 14.4376 79.4217 14.4007C76.8172 14.3638 73.8824 14.5113 70.6172 14.843Z" fill="#fede5a" fill-rule="nonzero" opacity="1" stroke="none" vectornator:layerName="Curve 2"/>
<g opacity="1" vectornator:layerName="Group 1">
<path d="M79.5943 0.352844C76.8732 0.313972 74.1541 0.407382 71.4331 0.640614C68.7121 0.873846 65.9499 1.26475 63.1511 1.80896C60.3523 2.35317 57.478 3.09186 54.5237 4.02479C51.5694 4.95772 49.2355 5.79558 47.5252 6.53415C45.8148 7.27272 43.8904 8.20398 41.7525 9.33127C39.6145 10.4586 37.4603 11.7434 35.2834 13.1816C33.1066 14.6199 31.0457 16.116 29.1021 17.6709C27.1585 19.2257 25.1163 21.0696 22.9784 23.2075C20.8404 25.3455 18.9534 27.4251 17.3208 29.4464C15.6882 31.4678 14.0369 33.783 12.3654 36.3874C10.6939 38.9918 9.31567 41.3818 8.22726 43.5587C7.13884 45.7355 6.22626 47.7532 5.48769 49.6191C4.74912 51.485 3.95438 53.8994 3.09919 56.8536C2.24401 59.8079 1.61741 62.3718 1.22869 64.5486C0.839969 66.7254 0.529546 69.1959 0.296314 71.9558C0.0630814 74.7157-0.0303287 77.3357 0.00854335 79.8235C0.0474154 82.3113 0.258673 85.1295 0.647393 88.2781C1.03611 91.4268 1.4457 93.9533 1.87329 95.858C2.30089 97.7627 2.7852 99.6123 3.32941 101.4C3.87362 103.189 4.4571 104.896 5.07905 106.529C5.70101 108.161 6.45838 109.93 7.35244 111.835C8.24649 113.74 9.54999 116.111 11.2604 118.949C12.9707 121.786 14.6033 124.219 16.1582 126.241C17.7131 128.262 18.7996 129.584 19.4215 130.206C20.0435 130.828 20.9747 131.586 22.2186 132.48C23.4625 133.374 24.8465 134.224 26.3625 135.041C27.8785 135.857 29.182 136.484 30.2705 136.911C31.3589 137.339 32.6753 137.761 34.2302 138.189C35.7851 138.617 37.1072 138.933 38.1956 139.127C39.2841 139.321 41.0158 139.495 43.387 139.651C45.7582 139.806 47.8378 139.844 49.6259 139.766C51.414 139.688 53.1271 139.552 54.7597 139.357C56.3923 139.163 58.6831 138.753 61.6374 138.131C64.5917 137.509 67.2734 136.833 69.6835 136.094C72.0935 135.355 74.1731 134.654 75.9223 133.993C77.6716 133.332 79.6146 132.538 81.7525 131.605C83.8905 130.672 86.0692 129.641 88.2849 128.514C90.5006 127.387 93.4367 125.711 97.0907 123.495C100.745 121.28 104.184 118.97 107.41 116.56C110.636 114.15 113.083 112.207 114.754 110.73C116.426 109.253 117.828 107.931 118.955 106.764C120.083 105.598 121.287 104.531 122.57 103.559C123.853 102.587 125.057 101.886 126.184 101.458C127.312 101.03 128.106 100.819 128.573 100.819C129.039 100.819 129.529 100.931 130.035 101.164C130.54 101.398 130.987 101.807 131.376 102.39C131.764 102.973 132.037 103.693 132.193 104.549C132.348 105.404 132.386 106.335 132.308 107.346C132.23 108.356 131.995 109.579 131.606 111.018C131.217 112.456 130.851 113.604 130.501 114.459C130.151 115.315 129.567 116.5 128.751 118.016C127.935 119.532 127.134 120.873 126.357 122.039C125.579 123.205 124.592 124.546 123.387 126.062C122.182 127.578 120.686 129.273 118.898 131.139C117.11 133.004 115.614 134.457 114.409 135.507C113.204 136.557 111.708 137.767 109.919 139.127C108.131 140.488 106.319 141.748 104.492 142.914C102.665 144.08 100.877 145.129 99.1281 146.062C97.3789 146.995 95.3611 147.951 93.0677 148.923C90.7742 149.895 88.8499 150.633 87.295 151.139C85.7401 151.644 83.8158 152.128 81.5223 152.595C79.2289 153.061 77.8262 153.39 77.3209 153.585C76.8155 153.779 76.4304 154.015 76.1583 154.287C75.8862 154.559 75.731 154.851 75.6921 155.162C75.6532 155.473 75.8084 155.802 76.1583 156.152C76.5081 156.501 76.8746 156.713 77.2633 156.79C77.652 156.868 78.7443 156.887 80.5324 156.848C82.3205 156.809 84.5926 156.635 87.3525 156.324C90.1125 156.013 92.5772 155.628 94.754 155.162C96.9308 154.695 99.3265 154.05 101.931 153.234C104.535 152.417 107 151.505 109.332 150.494C111.665 149.483 114.173 148.223 116.855 146.707C119.537 145.191 121.833 143.751 123.738 142.39C125.643 141.03 127.505 139.571 129.332 138.016C131.159 136.461 132.985 134.73 134.812 132.825C136.639 130.92 138.296 129.039 139.773 127.173C141.25 125.307 142.665 123.321 144.026 121.222C145.387 119.123 146.709 116.832 147.991 114.344C149.274 111.857 150.342 109.523 151.197 107.346C152.052 105.169 152.853 102.798 153.591 100.232C154.33 97.6666 154.914 95.2205 155.341 92.8882C155.769 90.5559 156.098 88.0107 156.331 85.2508C156.564 82.4909 156.658 79.8652 156.619 77.3774C156.58 74.8896 156.406 72.2826 156.095 69.5616C155.784 66.8405 155.356 64.2393 154.812 61.7515C154.267 59.2637 153.628 56.8737 152.889 54.5803C152.151 52.2868 151.393 50.2072 150.616 48.3414C149.838 46.4755 148.808 44.3342 147.525 41.9241C146.243 39.5141 144.958 37.3411 143.675 35.3975C142.392 33.4539 140.939 31.4677 139.307 29.4464C137.674 27.4251 135.787 25.3455 133.649 23.2075C131.511 21.0696 129.314 19.1079 127.059 17.3198C124.804 15.5317 122.936 14.1534 121.459 13.1816C119.982 12.2098 117.983 11.0429 115.456 9.68235C112.929 8.32183 110.813 7.27272 109.102 6.53415C107.392 5.79558 105.35 5.0382 102.978 4.26076C100.607 3.48332 98.0003 2.78199 95.1626 2.16004C92.325 1.53809 89.7051 1.09114 87.295 0.819031C84.8849 0.546927 82.3153 0.391716 79.5943 0.352844ZM79.4216 8.51401C82.026 8.55287 84.5899 8.72677 87.1166 9.03775C89.6433 9.34872 92.2689 9.8388 94.99 10.4996C97.711 11.1604 100.411 11.9925 103.094 13.0032C105.776 14.0139 108.147 15.0443 110.207 16.0939C112.267 17.1434 114.502 18.4656 116.912 20.0593C119.322 21.6531 121.421 23.1865 123.209 24.6637C124.997 26.1408 126.865 27.8912 128.809 29.9126C130.752 31.9339 132.366 33.7649 133.649 35.3975C134.932 37.0301 136.409 39.2031 138.081 41.9241C139.752 44.6452 141.168 47.3082 142.334 49.9126C143.5 52.517 144.437 54.907 145.137 57.0839C145.836 59.2607 146.476 61.8059 147.059 64.7213C147.642 67.6367 148.033 70.225 148.227 72.4796C148.422 74.7342 148.497 77.0681 148.458 79.4781C148.419 81.8882 148.245 84.3903 147.934 86.9947C147.623 89.5991 147.43 90.9457 147.353 91.0235C147.314 91.0623 147.271 91.0997 147.232 91.1386C147.096 90.4194 146.959 89.6994 146.823 88.9803C146.551 87.542 146.147 86.046 145.603 84.4911C145.059 82.9362 144.569 81.7506 144.141 80.9342C143.714 80.1179 143.111 79.1622 142.334 78.0738C141.556 76.9854 140.78 76.0728 140.003 75.3342C139.226 74.5957 138.35 73.9375 137.379 73.3544C136.407 72.7713 135.494 72.343 134.639 72.0709C133.784 71.7988 132.871 71.6249 131.899 71.5472C130.928 71.4694 129.841 71.5255 128.636 71.7198C127.431 71.9142 126.494 72.1312 125.833 72.3644C125.172 72.5977 124.396 72.9455 123.502 73.4119C122.608 73.8784 121.479 74.6171 120.118 75.6278C118.758 76.6384 117.497 77.7249 116.331 78.8911C115.165 80.0572 113.725 81.3794 112.014 82.8565C110.304 84.3337 108.442 85.8484 106.42 87.4033C104.399 88.9582 102.357 90.4169 100.296 91.7774C98.2362 93.1379 96.1754 94.3854 94.1151 95.5127C92.0549 96.64 91.0058 97.5339 90.9669 98.1947C90.9281 98.8555 90.8102 99.5324 90.6159 100.232C90.4215 100.932 90.0363 101.788 89.4533 102.799C88.8702 103.81 88.1071 104.722 87.1741 105.539C86.2412 106.355 85.1921 106.994 84.0259 107.461C82.8598 107.927 81.7359 108.2 80.6475 108.278C79.5591 108.356 78.5286 108.3 77.5568 108.106C76.585 107.911 75.6725 107.601 74.8173 107.173C73.9621 106.746 73.2234 106.237 72.6014 105.654C71.9795 105.071 70.62 104.996 68.5209 105.423C66.4218 105.851 64.4974 106.143 62.7482 106.298C60.999 106.454 59.2054 106.491 57.3784 106.413C55.5514 106.336 53.8815 106.124 52.3654 105.775C50.8494 105.425 49.7816 105.114 49.1597 104.842C48.5377 104.57 47.9729 104.254 47.4676 103.904C46.9623 103.554 46.5527 103.206 46.2417 102.857C45.9307 102.507 45.7008 102.159 45.5453 101.809C45.3898 101.459 45.3338 101.031 45.3726 100.526C45.4115 100.02 45.5667 99.5733 45.8388 99.1846C46.1109 98.7959 46.4961 98.4424 47.0014 98.1314C47.5067 97.8204 48.1463 97.5531 48.9237 97.3199C49.7012 97.0867 50.0921 96.8509 50.0921 96.6177C50.0921 96.3845 50.0173 96.1545 49.8618 95.9213C49.7064 95.6881 49.2968 95.2785 48.6359 94.6954C47.9751 94.1123 47.3356 93.7027 46.7136 93.4695C46.0917 93.2363 45.2912 93.0811 44.3194 93.0033C43.3476 92.9256 42.379 92.9629 41.4072 93.1184C40.4354 93.2739 39.2066 93.6461 37.7295 94.2292C36.2523 94.8123 34.8928 95.5079 33.6489 96.3242C32.405 97.1405 31.2006 98.1149 30.0345 99.2422C28.8683 100.369 27.8566 101.536 27.0014 102.741C26.1462 103.947 25.3701 105.343 24.6704 106.937C23.9708 108.531 23.4864 109.99 23.2143 111.311C22.9422 112.633 22.787 113.992 22.7481 115.392C22.7093 116.791 22.8027 118.287 23.0359 119.881C23.1525 120.678 23.2704 121.478 23.387 122.275C22.94 121.692 22.493 121.109 22.046 120.526C21.1519 119.36 20.1589 117.919 19.0704 116.209C17.982 114.499 16.759 112.264 15.3985 109.504C14.038 106.744 12.8897 103.982 11.9568 101.222C11.0238 98.4621 10.2478 95.5692 9.62582 92.5371C9.00387 89.5051 8.59428 86.8608 8.39992 84.6062C8.20556 82.3516 8.11215 80.3281 8.11215 78.54C8.11215 76.7519 8.20556 74.7341 8.39992 72.4796C8.59428 70.225 8.98519 67.6367 9.56827 64.7213C10.1513 61.8059 10.7161 59.4777 11.2604 57.7285C11.8046 55.9792 12.4254 54.2288 13.1251 52.4795C13.8248 50.7303 14.6009 48.9985 15.456 47.2882C16.3112 45.5778 17.1117 44.1004 17.8503 42.8565C18.5889 41.6126 19.7558 39.8866 21.3496 37.6709C22.9433 35.4552 24.905 33.1026 27.2374 30.6148C29.5697 28.1269 31.9783 25.8922 34.4661 23.9097C36.9539 21.9272 39.4431 20.1768 41.9309 18.6608C44.4187 17.1448 46.2999 16.077 47.5827 15.455C48.8655 14.8331 50.442 14.1504 52.3079 13.4119C54.1737 12.6733 55.8437 12.0711 57.3208 11.6047C58.798 11.1382 60.5671 10.6726 62.6273 10.2061C64.6875 9.73963 67.3506 9.33004 70.6158 8.98019C73.8811 8.63034 76.8172 8.47513 79.4216 8.51401Z" fill="#3f0962" fill-rule="nonzero" opacity="1" stroke="none" vectornator:layerName="Curve 3"/>
<path d="M82.1621 20.293C81.8512 21.1871 81.2875 21.7507 80.4712 21.984C79.6549 22.2172 79.2079 22.4699 79.1301 22.742C79.0524 23.0141 79.0913 23.2084 79.2467 23.325C79.4022 23.4417 79.8493 23.5971 80.5878 23.7915C81.3264 23.9859 81.8123 24.4912 82.0455 25.3075C82.2788 26.1238 82.5314 26.5709 82.8035 26.6486C83.0756 26.7263 83.2894 26.668 83.4449 26.4737C83.6004 26.2793 83.7559 25.8517 83.9114 25.1909C84.0669 24.5301 84.5722 24.0636 85.4274 23.7915C86.2826 23.5194 86.749 23.2667 86.8268 23.0335C86.9045 22.8003 86.8657 22.6059 86.7102 22.4504C86.5547 22.2949 86.1077 22.12 85.3691 21.9257C84.6305 21.7313 84.1252 21.2065 83.8531 20.3513C83.581 19.4962 83.3089 19.0491 83.0368 19.0103C82.7647 18.9714 82.4731 19.399 82.1621 20.293Z" fill="#3f0962" fill-rule="nonzero" opacity="1" stroke="none"/>
<path d="M102.453 28.5145C102.22 28.7477 101.929 29.4668 101.579 30.6719C101.229 31.8769 100.413 32.6738 99.1298 33.0625C97.847 33.4512 97.1279 33.7233 96.9724 33.8788C96.8169 34.0343 96.7392 34.2675 96.7392 34.5785C96.7392 34.8895 96.8169 35.1227 96.9724 35.2782C97.1279 35.4337 97.8276 35.6863 99.0715 36.0362C100.315 36.386 101.151 37.2218 101.579 38.5434C102.006 39.8651 102.317 40.6037 102.512 40.7591C102.706 40.9146 102.881 40.9924 103.036 40.9924C103.192 40.9924 103.406 40.8758 103.678 40.6425C103.95 40.4093 104.241 39.7096 104.552 38.5434C104.863 37.3773 105.699 36.561 107.06 36.0945C108.42 35.628 109.159 35.3171 109.275 35.1616C109.392 35.0061 109.45 34.8117 109.45 34.5785C109.45 34.3453 109.314 34.112 109.042 33.8788C108.77 33.6456 108.07 33.3735 106.943 33.0625C105.816 32.7515 105.038 31.9352 104.611 30.6135C104.183 29.2919 103.911 28.5728 103.794 28.4562C103.678 28.3395 103.483 28.2618 103.211 28.2229C102.939 28.184 102.687 28.2812 102.453 28.5145Z" fill="#3f0962" fill-rule="nonzero" opacity="1" stroke="none"/>
<path d="M42.9792 29.8555C40.9578 30.1276 39.3835 30.4581 38.2562 30.8468C37.1289 31.2355 36.2154 31.6048 35.5157 31.9546C34.816 32.3045 34.0969 32.7126 33.3583 33.1791C32.6198 33.6456 31.8618 34.2092 31.0843 34.87C30.3069 35.5309 29.5294 36.2889 28.752 37.144C27.9746 37.9992 27.4109 38.7184 27.0611 39.3014C26.7112 39.8845 26.5752 40.2344 26.6529 40.351C26.7307 40.4676 26.8862 40.5259 27.1194 40.5259C27.3526 40.5259 27.7996 40.351 28.4605 40.0011C29.1213 39.6513 30.0931 39.3014 31.3759 38.9516C32.6586 38.6017 33.8637 38.4268 34.991 38.4268C36.1183 38.4268 37.2455 38.5823 38.3728 38.8933C39.5001 39.2043 40.5302 39.6319 41.4632 40.1761C42.3961 40.7203 43.1347 41.2256 43.6789 41.6921C44.2231 42.1585 45.0199 43.0332 46.0695 44.3159C47.119 45.5987 48.0714 47.0564 48.9266 48.689C49.7818 50.3217 50.4815 51.9348 51.0257 53.5286C51.5699 55.1223 52.0363 55.9775 52.4251 56.0941C52.8138 56.2108 53.4163 56.2496 54.2326 56.2108C55.0489 56.1719 56.701 55.9775 59.1888 55.6277C60.4327 55.4528 61.6766 55.2778 62.9205 55.1029C62.9205 55.1418 62.9205 55.1807 62.9205 55.2195C62.9205 55.2973 61.4822 56.0164 58.6057 57.3769C55.7292 58.7374 54.0188 59.6509 53.4746 60.1174C52.9304 60.5839 52.7943 62.1582 53.0664 64.8404C53.3386 67.5225 53.5135 70.263 53.5912 73.0618C53.669 75.8606 53.8245 77.3377 54.0577 77.4932C54.2909 77.6487 54.8934 77.7264 55.8652 77.7264C56.837 77.7264 58.4308 77.5709 60.6465 77.26C62.8622 76.949 64.4171 76.7935 65.3111 76.7935C65.7582 76.7935 66.2052 76.7935 66.6522 76.7935C64.8835 77.4932 63.1149 78.1929 61.3462 78.8926C57.8088 80.292 55.7681 81.1277 55.2238 81.3998C54.6796 81.6719 54.252 81.944 53.9411 82.2161C53.6301 82.4882 53.3969 84.1986 53.2414 87.3472C53.0859 90.4959 52.8721 93.1586 52.6 95.3354C52.3279 97.5123 52.1812 99.0681 52.167 99.4415C52.1586 99.6591 52.1141 99.6308 52.1918 99.8252C52.2696 100.02 52.736 100.175 53.5912 100.292C54.4464 100.408 55.6126 100.467 57.0897 100.467C58.5668 100.467 60.1606 100.369 61.871 100.175C63.5813 99.9806 65.1362 99.7474 66.5356 99.4753C67.935 99.2032 68.6736 98.3675 68.7513 96.9681C68.829 95.5687 69.004 94.4608 69.2761 93.6445C69.5482 92.8282 69.8592 92.1285 70.209 91.5454C70.5589 90.9623 70.967 90.3987 71.4335 89.8545C71.8999 89.3103 72.4441 88.8049 73.0661 88.3385C73.6881 87.872 74.6015 87.4056 75.8066 86.9391C77.0116 86.4726 78.2555 86.22 79.5383 86.1811C80.8211 86.1422 81.9484 86.2588 82.9202 86.5309C83.892 86.803 84.8443 87.2306 85.7772 87.8137C86.7102 88.3968 87.4487 88.9799 87.9929 89.5629C88.5372 90.146 88.9064 90.6125 89.1008 90.9623C89.2952 91.3122 89.4701 91.5066 89.6256 91.5454C89.7811 91.5843 90.7334 91.1567 92.4827 90.2626C94.2319 89.3686 95.9617 88.3968 97.6721 87.3472C99.3824 86.2977 100.976 85.2093 102.453 84.082C103.93 82.9547 105.155 81.8857 106.127 80.8751C107.099 79.8644 107.818 78.9509 108.284 78.1346C108.751 77.3183 109.003 76.4242 109.042 75.4524C109.081 74.4806 108.984 73.5477 108.751 72.6536C108.517 71.7596 108.109 70.6906 107.526 69.4467C106.943 68.2028 106.049 66.6868 104.844 64.8987C103.639 63.1105 102.395 61.4585 101.112 59.9425C99.8295 58.4265 98.2552 56.7355 96.3893 54.8697C94.5234 53.0038 92.8714 51.4489 91.4331 50.205C89.9949 48.9611 88.2845 47.5812 86.302 46.0652C84.3195 44.5492 82.4343 43.1886 80.6461 41.9836C78.858 40.7786 76.9533 39.593 74.932 38.4268C72.9106 37.2607 70.967 36.2306 69.1012 35.3365C67.2353 34.4424 65.5638 33.7039 64.0867 33.1208C62.6095 32.5377 60.9575 31.9741 59.1305 31.4299C57.3035 30.8857 55.5348 30.4581 53.8245 30.1471C52.1141 29.8361 50.3843 29.6417 48.635 29.564C46.8858 29.4863 45.0005 29.5834 42.9792 29.8555Z" fill="#3f0962" fill-rule="nonzero" opacity="1" stroke="none"/>
<path d="M124.086 46.8232C123.891 46.9009 123.716 47.0564 123.561 47.2896C123.405 47.5229 123.094 48.4364 122.628 50.0301C122.161 51.6239 121.112 52.6734 119.479 53.1787C117.847 53.6841 116.914 54.0145 116.68 54.17C116.447 54.3255 116.292 54.5587 116.214 54.8697C116.136 55.1807 116.156 55.4722 116.272 55.7443C116.389 56.0164 116.544 56.2108 116.739 56.3274C116.933 56.444 117.847 56.7355 119.479 57.202C121.112 57.6685 122.181 58.7569 122.686 60.4673C123.192 62.1776 123.541 63.13 123.736 63.3243C123.93 63.5187 124.163 63.6353 124.435 63.6742C124.708 63.7131 124.941 63.6936 125.135 63.6159C125.33 63.5381 125.524 63.3632 125.718 63.0911C125.913 62.819 126.243 61.8861 126.709 60.2923C127.176 58.6986 128.264 57.649 129.975 57.1437C131.685 56.6384 132.637 56.2691 132.832 56.0358C133.026 55.8026 133.123 55.5305 133.123 55.2195C133.123 54.9086 132.987 54.617 132.715 54.3449C132.443 54.0728 131.491 53.7035 129.858 53.2371C128.225 52.7706 127.156 51.6822 126.651 49.9718C126.146 48.2614 125.796 47.3091 125.602 47.1147C125.407 46.9204 125.155 46.8037 124.844 46.7649C124.533 46.726 124.28 46.7454 124.086 46.8232Z" fill="#3f0962" fill-rule="nonzero" opacity="1" stroke="none"/>
<path d="M35.6324 54.4032C35.3214 55.2584 34.7577 55.822 33.9414 56.0941C33.1251 56.3663 32.6781 56.6384 32.6003 56.9105C32.5226 57.1826 32.542 57.3769 32.6586 57.4935C32.7753 57.6102 33.2029 57.7656 33.9414 57.96C34.68 58.1544 35.1659 58.6403 35.3991 59.4177C35.6324 60.1951 35.8073 60.6422 35.9239 60.7588C36.0405 60.8754 36.196 60.9337 36.3904 60.9337C36.5847 60.9337 36.7402 60.8754 36.8568 60.7588C36.9734 60.6422 37.1289 60.2146 37.3233 59.476C37.5176 58.7374 38.0035 58.2515 38.781 58.0183C39.5584 57.7851 40.0055 57.6102 40.1221 57.4935C40.2387 57.3769 40.297 57.2214 40.297 57.0271C40.297 56.8327 39.8694 56.58 39.0142 56.2691C38.159 55.9581 37.6148 55.4139 37.3816 54.6364C37.1484 53.859 36.9734 53.412 36.8568 53.2954C36.7402 53.1787 36.5847 53.1204 36.3904 53.1204C36.196 53.1204 35.9433 53.548 35.6324 54.4032Z" fill="#3f0962" fill-rule="nonzero" opacity="1" stroke="none"/>
<path d="M17.1487 62.0416C16.9544 62.2359 16.6822 62.9551 16.3324 64.199C15.9826 65.4429 15.1857 66.2397 13.9418 66.5896C12.6979 66.9394 11.9787 67.1921 11.7844 67.3476C11.59 67.5031 11.4734 67.6974 11.4345 67.9307C11.3957 68.1639 11.4928 68.4166 11.7261 68.6887C11.9593 68.9608 12.6784 69.2718 13.8835 69.6216C15.0885 69.9715 15.9048 70.8072 16.3324 72.1289C16.76 73.4505 17.0515 74.1696 17.207 74.2863C17.3625 74.4029 17.5763 74.4612 17.8484 74.4612C18.1205 74.4612 18.3537 74.3446 18.5481 74.1113C18.7425 73.8781 18.9951 73.1784 19.3061 72.0122C19.6171 70.8461 20.4723 70.0298 21.8717 69.5633C23.2711 69.0968 24.0096 68.6887 24.0874 68.3388C24.1651 67.989 24.0874 67.6974 23.8541 67.4642C23.6209 67.231 22.9018 66.9394 21.6967 66.5896C20.4917 66.2397 19.6948 65.4234 19.3061 64.1407C18.9174 62.8579 18.6258 62.1387 18.4315 61.9833C18.2371 61.8278 18.0233 61.75 17.7901 61.75C17.5569 61.75 17.3431 61.8472 17.1487 62.0416Z" fill="#3f0962" fill-rule="nonzero" opacity="1" stroke="none"/>
<path d="M35.2242 71.8956C34.9521 72.2066 34.5828 73.159 34.1163 74.7527C33.6499 76.3465 32.542 77.4154 30.7928 77.9597C29.0435 78.5039 28.0912 78.8731 27.9357 79.0675C27.7802 79.2619 27.7025 79.534 27.7025 79.8838C27.7025 80.2337 27.858 80.5446 28.1689 80.8167C28.4799 81.0889 29.4323 81.4581 31.026 81.9246C32.6198 82.3911 33.6888 83.4989 34.233 85.2482C34.7772 86.9974 35.1465 87.9498 35.3408 88.1052C35.5352 88.2607 35.8073 88.3385 36.1571 88.3385C36.507 88.3385 36.8179 88.183 37.0901 87.872C37.3622 87.561 37.7314 86.6087 38.1979 85.0149C38.6644 83.4212 39.7722 82.3522 41.5215 81.808C43.2707 81.2638 44.2231 80.8945 44.3786 80.7001C44.534 80.5058 44.6118 80.2337 44.6118 79.8838C44.6118 79.534 44.4563 79.223 44.1453 78.9509C43.8343 78.6788 42.882 78.3095 41.2882 77.843C39.6945 77.3766 38.6255 76.2687 38.0813 74.5195C37.5371 72.7702 37.1678 71.8179 36.9734 71.6624C36.7791 71.5069 36.507 71.4292 36.1571 71.4292C35.8073 71.4292 35.4963 71.5846 35.2242 71.8956Z" fill="#3f0962" fill-rule="nonzero" opacity="1" stroke="none"/>
<path d="M75.4567 93.353C75.0291 93.8194 74.6793 94.4025 74.4072 95.1022C74.1351 95.8019 74.0185 96.5988 74.0573 97.4928C74.0962 98.3869 74.31 99.2032 74.6987 99.9418C75.0874 100.68 75.6511 101.322 76.3897 101.866C77.1282 102.41 77.8474 102.76 78.5471 102.915C79.2467 103.071 79.927 103.11 80.5878 103.032C81.2487 102.954 81.89 102.76 82.512 102.449C83.1339 102.138 83.6782 101.73 84.1446 101.225C84.6111 100.719 84.9609 100.136 85.1942 99.4753C85.3108 99.1449 85.4274 98.8145 85.544 98.4841C85.3302 98.6007 85.1164 98.7173 84.9026 98.8339C84.475 99.0672 84.028 99.2421 83.5615 99.3587C83.0951 99.4753 82.512 99.5142 81.8123 99.4753C81.1126 99.4364 80.4712 99.3004 79.8881 99.0672C79.3051 98.8339 78.7803 98.5229 78.3138 98.1342C77.8474 97.7455 77.4392 97.2596 77.0894 96.6765C76.7395 96.0934 76.5063 95.5687 76.3897 95.1022C76.273 94.6357 76.2342 94.111 76.273 93.5279C76.2925 93.2364 76.3119 92.9448 76.3313 92.6533C76.2925 92.6533 76.2536 92.6533 76.2147 92.6533C76.137 92.6533 75.8843 92.8865 75.4567 93.353Z" fill="#3f0962" fill-rule="nonzero" opacity="1" stroke="none" vectornator:layerName="Curve"/>
</g>
</g>
<g fill="#3f0962" opacity="1" stroke="none" vectornator:layerName="Text 1">
<path d="M235.755 52.9539C229.493 52.9539 224.694 54.8652 221.359 58.6879C218.025 62.5106 216.357 67.9192 216.357 74.9139C216.357 81.9899 218.208 87.4392 221.908 91.2619C225.609 95.0846 230.591 96.9959 236.853 96.9959C240.188 96.9959 243.014 96.5486 245.332 95.6539C247.65 94.7592 249.867 93.7426 251.981 92.6039C253.364 93.7426 254.442 95.1049 255.214 96.6909C255.987 98.2769 256.373 100.127 256.373 102.242C256.373 105.577 254.523 108.403 250.822 110.721C247.122 113.039 241.489 114.198 233.925 114.198C228.476 114.198 223.352 113.425 218.553 111.88C213.755 110.335 209.566 107.956 205.987 104.743C202.409 101.53 199.582 97.4636 197.508 92.5429C195.434 87.6222 194.397 81.7459 194.397 74.9139C194.397 68.5699 195.394 62.9782 197.386 58.1389C199.379 53.2996 202.104 49.2126 205.56 45.8779C209.017 42.5432 213.063 40.0219 217.699 38.3139C222.335 36.6059 227.297 35.7519 232.583 35.7519C240.066 35.7519 245.861 36.9719 249.968 39.4119C254.076 41.8519 256.129 44.9832 256.129 48.8059C256.129 50.9206 255.601 52.7506 254.543 54.2959C253.486 55.8412 252.266 57.0612 250.883 57.9559C248.769 56.5732 246.512 55.3939 244.112 54.4179C241.713 53.4419 238.927 52.9539 235.755 52.9539Z"/>
<path d="M325.913 82.3559C325.913 87.3986 325.141 91.8922 323.595 95.8369C322.05 99.7816 319.874 103.096 317.068 105.78C314.262 108.464 310.907 110.497 307.003 111.88C303.099 113.263 298.748 113.954 293.949 113.954C289.151 113.954 284.799 113.222 280.895 111.758C276.991 110.294 273.636 108.2 270.83 105.475C268.024 102.75 265.849 99.4359 264.303 95.5319C262.758 91.6279 261.985 87.2359 261.985 82.3559C261.985 77.5572 262.758 73.2059 264.303 69.3019C265.849 65.3979 268.024 62.0836 270.83 59.3589C273.636 56.6342 276.991 54.5399 280.895 53.0759C284.799 51.6119 289.151 50.8799 293.949 50.8799C298.748 50.8799 303.099 51.6322 307.003 53.1369C310.907 54.6416 314.262 56.7562 317.068 59.4809C319.874 62.2056 322.05 65.5199 323.595 69.4239C325.141 73.3279 325.913 77.6386 325.913 82.3559ZM283.213 82.3559C283.213 87.3172 284.169 91.1196 286.08 93.7629C287.992 96.4062 290.655 97.7279 294.071 97.7279C297.487 97.7279 300.11 96.3859 301.94 93.7019C303.77 91.0179 304.685 87.2359 304.685 82.3559C304.685 77.4759 303.75 73.7142 301.879 71.0709C300.009 68.4276 297.365 67.1059 293.949 67.1059C290.533 67.1059 287.89 68.4276 286.019 71.0709C284.149 73.7142 283.213 77.4759 283.213 82.3559Z"/>
<path d="M333.477 82.3559C333.477 76.9879 334.291 72.3316 335.917 68.3869C337.544 64.4422 339.801 61.1686 342.688 58.5659C345.576 55.9632 348.951 54.0316 352.814 52.7709C356.678 51.5102 360.846 50.8799 365.319 50.8799C366.946 50.8799 368.532 51.0222 370.077 51.3069C371.623 51.5916 372.883 51.9372 373.859 52.3439L373.859 32.5799C374.673 32.3359 375.974 32.0716 377.763 31.7869C379.553 31.5022 381.383 31.3599 383.253 31.3599C385.043 31.3599 386.649 31.4819 388.072 31.7259C389.496 31.9699 390.695 32.4579 391.671 33.1899C392.647 33.9219 393.379 34.9182 393.867 36.1789C394.355 37.4396 394.599 39.0866 394.599 41.1199L394.599 98.9479C394.599 102.771 392.81 105.821 389.231 108.098C386.873 109.643 383.823 111.006 380.081 112.185C376.34 113.364 372.029 113.954 367.149 113.954C361.863 113.954 357.125 113.222 352.936 111.758C348.748 110.294 345.21 108.179 342.322 105.414C339.435 102.649 337.239 99.3342 335.734 95.4709C334.23 91.6076 333.477 87.2359 333.477 82.3559ZM368.125 67.1059C363.733 67.1059 360.358 68.3666 357.999 70.8879C355.641 73.4092 354.461 77.2319 354.461 82.3559C354.461 87.3986 355.559 91.2009 357.755 93.7629C359.951 96.3249 363.123 97.6059 367.271 97.6059C368.735 97.6059 370.057 97.3822 371.236 96.9349C372.416 96.4876 373.331 95.9792 373.981 95.4099L373.981 68.5699C372.355 67.5939 370.403 67.1059 368.125 67.1059Z"/>
<path d="M438.885 113.954C434.087 113.954 429.634 113.283 425.526 111.941C421.419 110.599 417.84 108.586 414.79 105.902C411.74 103.218 409.341 99.8426 407.592 95.7759C405.844 91.7092 404.969 86.9512 404.969 81.5019C404.969 76.1339 405.844 71.5182 407.592 67.6549C409.341 63.7916 411.639 60.6196 414.485 58.1389C417.332 55.6582 420.585 53.8282 424.245 52.6489C427.905 51.4696 431.647 50.8799 435.469 50.8799C439.78 50.8799 443.704 51.5306 447.242 52.8319C450.78 54.1332 453.83 55.9226 456.392 58.1999C458.954 60.4772 460.947 63.2019 462.37 66.3739C463.794 69.5459 464.505 73.0026 464.505 76.7439C464.505 79.5092 463.733 81.6239 462.187 83.0879C460.642 84.5519 458.487 85.4872 455.721 85.8939L425.587 90.4079C426.482 93.0919 428.312 95.1049 431.077 96.4469C433.843 97.7889 437.015 98.4599 440.593 98.4599C443.928 98.4599 447.08 98.0329 450.048 97.1789C453.017 96.3249 455.437 95.3286 457.307 94.1899C458.609 95.0032 459.707 96.1419 460.601 97.6059C461.496 99.0699 461.943 100.615 461.943 102.242C461.943 105.902 460.235 108.627 456.819 110.416C454.217 111.799 451.289 112.734 448.035 113.222C444.782 113.71 441.732 113.954 438.885 113.954ZM435.469 66.0079C433.517 66.0079 431.83 66.3332 430.406 66.9839C428.983 67.6346 427.824 68.4682 426.929 69.4849C426.035 70.5016 425.364 71.6402 424.916 72.9009C424.469 74.1616 424.205 75.4426 424.123 76.7439L444.985 73.3279C444.741 71.7012 443.847 70.0746 442.301 68.4479C440.756 66.8212 438.479 66.0079 435.469 66.0079Z"/>
<path d="M534.655 56.1259C535.55 55.7192 536.953 55.2516 538.864 54.7229C540.776 54.1942 542.707 53.9299 544.659 53.9299C548.075 53.9299 550.922 54.4382 553.199 55.4549C555.477 56.4716 556.859 57.9559 557.347 59.9079C558.242 63.2426 559.076 66.3536 559.848 69.2409C560.621 72.1282 561.373 74.8936 562.105 77.5369C562.837 80.1802 563.549 82.8032 564.24 85.4059C564.932 88.0086 565.603 90.7332 566.253 93.5799L566.863 93.5799C567.595 88.6186 568.246 83.8809 568.815 79.3669C569.385 74.8529 569.913 70.4202 570.401 66.0689C570.889 61.7176 571.377 57.4069 571.865 53.1369C572.353 48.8669 572.841 44.5359 573.329 40.1439C576.339 38.4359 579.551 37.5819 582.967 37.5819C585.977 37.5819 588.579 38.2326 590.775 39.5339C592.971 40.8352 594.069 43.0312 594.069 46.1219C594.069 47.9112 593.886 50.4529 593.52 53.7469C593.154 57.0409 592.666 60.7212 592.056 64.7879C591.446 68.8546 590.735 73.1246 589.921 77.5979C589.108 82.0712 588.254 86.3412 587.359 90.4079C586.465 94.4746 585.55 98.1549 584.614 101.449C583.679 104.743 582.805 107.285 581.991 109.074C580.771 110.213 578.779 111.148 576.013 111.88C573.248 112.612 570.401 112.978 567.473 112.978C563.651 112.978 560.418 112.47 557.774 111.453C555.131 110.436 553.525 108.993 552.955 107.122C551.898 103.869 550.759 100.005 549.539 95.5319C548.319 91.0586 547.018 86.1379 545.635 80.7699C544.497 86.0566 543.317 91.2212 542.097 96.2639C540.877 101.307 539.779 105.577 538.803 109.074C537.583 110.213 535.753 111.148 533.313 111.88C530.873 112.612 528.189 112.978 525.261 112.978C521.601 112.978 518.287 112.47 515.318 111.453C512.35 110.436 510.418 108.993 509.523 107.122C508.791 105.658 507.998 103.482 507.144 100.595C506.29 97.7076 505.416 94.4136 504.521 90.7129C503.627 87.0122 502.712 83.0066 501.776 78.6959C500.841 74.3852 499.987 70.0746 499.214 65.7639C498.442 61.4532 497.73 57.2442 497.079 53.1369C496.429 49.0296 495.941 45.2679 495.615 41.8519C496.754 40.7946 498.34 39.8186 500.373 38.9239C502.407 38.0292 504.603 37.5819 506.961 37.5819C510.052 37.5819 512.594 38.2529 514.586 39.5949C516.579 40.9369 517.819 43.1939 518.307 46.3659C519.609 54.6619 520.686 61.5752 521.54 67.1059C522.394 72.6366 523.086 77.1709 523.614 80.7089C524.143 84.2469 524.529 86.9919 524.773 88.9439C525.017 90.8959 525.261 92.4412 525.505 93.5799L526.115 93.5799C526.847 90.3266 527.539 87.3172 528.189 84.5519C528.84 81.7866 529.511 79.0009 530.202 76.1949C530.894 73.3889 531.605 70.3796 532.337 67.1669C533.069 63.9542 533.842 60.2739 534.655 56.1259Z"/>
<path d="M603.219 36.2399C603.219 33.1492 604.256 30.5466 606.33 28.4319C608.404 26.3172 611.149 25.2599 614.565 25.2599C617.981 25.2599 620.726 26.3172 622.8 28.4319C624.874 30.5466 625.911 33.1492 625.911 36.2399C625.911 39.3306 624.874 41.9332 622.8 44.0479C620.726 46.1626 617.981 47.2199 614.565 47.2199C611.149 47.2199 608.404 46.1626 606.33 44.0479C604.256 41.9332 603.219 39.3306 603.219 36.2399ZM624.935 111.88C624.041 112.043 622.719 112.266 620.97 112.551C619.222 112.836 617.453 112.978 615.663 112.978C613.874 112.978 612.268 112.856 610.844 112.612C609.421 112.368 608.221 111.88 607.245 111.148C606.269 110.416 605.517 109.42 604.988 108.159C604.46 106.898 604.195 105.251 604.195 103.218L604.195 53.5639C605.09 53.4012 606.412 53.1776 608.16 52.8929C609.909 52.6082 611.678 52.4659 613.467 52.4659C615.257 52.4659 616.863 52.5879 618.286 52.8319C619.71 53.0759 620.909 53.5639 621.885 54.2959C622.861 55.0279 623.614 56.0242 624.142 57.2849C624.671 58.5456 624.935 60.1926 624.935 62.2259L624.935 111.88Z"/>
<path d="M640.185 112.002C638.884 110.863 637.847 109.521 637.074 107.976C636.302 106.431 635.915 104.682 635.915 102.73C635.915 101.103 636.302 99.4969 637.074 97.9109C637.847 96.3249 638.803 94.8406 639.941 93.4579L660.925 68.8139L638.477 68.8139C637.989 67.9192 637.522 66.7806 637.074 65.3979C636.627 64.0152 636.403 62.5106 636.403 60.8839C636.403 58.0372 637.034 55.9836 638.294 54.7229C639.555 53.4622 641.243 52.8319 643.357 52.8319L681.787 52.8319C683.089 53.9706 684.126 55.3126 684.898 56.8579C685.671 58.4032 686.057 60.1519 686.057 62.1039C686.057 63.7306 685.671 65.3369 684.898 66.9229C684.126 68.5089 683.17 69.9932 682.031 71.3759L661.535 96.0199L685.447 96.0199C685.935 96.9146 686.403 98.0532 686.85 99.4359C687.298 100.819 687.521 102.323 687.521 103.95C687.521 106.797 686.891 108.85 685.63 110.111C684.37 111.372 682.682 112.002 680.567 112.002L640.185 112.002Z"/>
<path d="M722.169 98.8259C723.552 98.8259 725.077 98.6836 726.744 98.3989C728.412 98.1142 729.652 97.7279 730.465 97.2399L730.465 87.4799L721.681 88.2119C719.404 88.3746 717.533 88.8626 716.069 89.6759C714.605 90.4892 713.873 91.7092 713.873 93.3359C713.873 94.9626 714.504 96.2842 715.764 97.3009C717.025 98.3176 719.16 98.8259 722.169 98.8259ZM721.193 50.8799C725.585 50.8799 729.591 51.3272 733.21 52.2219C736.83 53.1166 739.92 54.4789 742.482 56.3089C745.044 58.1389 747.017 60.4569 748.399 63.2629C749.782 66.0689 750.473 69.3832 750.473 73.2059L750.473 100.534C750.473 102.649 749.884 104.377 748.704 105.719C747.525 107.061 746.122 108.22 744.495 109.196C739.209 112.368 731.767 113.954 722.169 113.954C717.859 113.954 713.975 113.547 710.518 112.734C707.062 111.921 704.093 110.701 701.612 109.074C699.132 107.447 697.22 105.373 695.878 102.852C694.536 100.331 693.865 97.4026 693.865 94.0679C693.865 88.4559 695.533 84.1452 698.867 81.1359C702.202 78.1266 707.367 76.2559 714.361 75.5239L730.343 73.8159L730.343 72.9619C730.343 70.6032 729.306 68.9156 727.232 67.8989C725.158 66.8822 722.169 66.3739 718.265 66.3739C715.175 66.3739 712.165 66.6992 709.237 67.3499C706.309 68.0006 703.666 68.8139 701.307 69.7899C700.25 69.0579 699.355 67.9396 698.623 66.4349C697.891 64.9302 697.525 63.3646 697.525 61.7379C697.525 59.6232 698.034 57.9356 699.05 56.6749C700.067 55.4142 701.633 54.3366 703.747 53.4419C706.106 52.5472 708.892 51.8966 712.104 51.4899C715.317 51.0832 718.347 50.8799 721.193 50.8799Z"/>
<path d="M783.901 111.88C783.088 112.124 781.807 112.368 780.058 112.612C778.31 112.856 776.5 112.978 774.629 112.978C772.84 112.978 771.234 112.856 769.81 112.612C768.387 112.368 767.187 111.88 766.211 111.148C765.235 110.416 764.483 109.42 763.954 108.159C763.426 106.898 763.161 105.251 763.161 103.218L763.161 66.6179C763.161 64.7472 763.507 63.1409 764.198 61.7989C764.89 60.4569 765.886 59.2572 767.187 58.1999C768.489 57.1426 770.095 56.1869 772.006 55.3329C773.918 54.4789 775.971 53.7266 778.167 53.0759C780.363 52.4252 782.641 51.9169 784.999 51.5509C787.358 51.1849 789.717 51.0019 792.075 51.0019C795.979 51.0019 799.07 51.7542 801.347 53.2589C803.625 54.7636 804.763 57.2239 804.763 60.6399C804.763 61.7786 804.601 62.8969 804.275 63.9949C803.95 65.0929 803.543 66.0892 803.055 66.9839C801.347 66.9839 799.599 67.0652 797.809 67.2279C796.02 67.3906 794.271 67.6346 792.563 67.9599C790.855 68.2852 789.249 68.6309 787.744 68.9969C786.24 69.3629 784.959 69.7899 783.901 70.2779L783.901 111.88Z"/>
<path d="M808.423 82.3559C808.423 76.9879 809.237 72.3316 810.863 68.3869C812.49 64.4422 814.747 61.1686 817.634 58.5659C820.522 55.9632 823.897 54.0316 827.76 52.7709C831.624 51.5102 835.792 50.8799 840.265 50.8799C841.892 50.8799 843.478 51.0222 845.023 51.3069C846.569 51.5916 847.829 51.9372 848.805 52.3439L848.805 32.5799C849.619 32.3359 850.92 32.0716 852.709 31.7869C854.499 31.5022 856.329 31.3599 858.199 31.3599C859.989 31.3599 861.595 31.4819 863.018 31.7259C864.442 31.9699 865.641 32.4579 866.617 33.1899C867.593 33.9219 868.325 34.9182 868.813 36.1789C869.301 37.4396 869.545 39.0866 869.545 41.1199L869.545 98.9479C869.545 102.771 867.756 105.821 864.177 108.098C861.819 109.643 858.769 111.006 855.027 112.185C851.286 113.364 846.975 113.954 842.095 113.954C836.809 113.954 832.071 113.222 827.882 111.758C823.694 110.294 820.156 108.179 817.268 105.414C814.381 102.649 812.185 99.3342 810.68 95.4709C809.176 91.6076 808.423 87.2359 808.423 82.3559ZM843.071 67.1059C838.679 67.1059 835.304 68.3666 832.945 70.8879C830.587 73.4092 829.407 77.2319 829.407 82.3559C829.407 87.3986 830.505 91.2009 832.701 93.7629C834.897 96.3249 838.069 97.6059 842.217 97.6059C843.681 97.6059 845.003 97.3822 846.182 96.9349C847.362 96.4876 848.277 95.9792 848.927 95.4099L848.927 68.5699C847.301 67.5939 845.349 67.1059 843.071 67.1059Z"/>
</g>
</g>
</svg>
