<?xml version="1.0" encoding="UTF-8" standalone="no"?>
<!DOCTYPE svg PUBLIC "-//W3C//DTD SVG 1.1//EN" "http://www.w3.org/Graphics/SVG/1.1/DTD/svg11.dtd">
<!-- Created with Vectornator (http://vectornator.io/) -->
<svg height="100%" stroke-miterlimit="10" style="fill-rule:nonzero;clip-rule:evenodd;stroke-linecap:round;stroke-linejoin:round;" version="1.1" viewBox="0 0 851 852" width="100%" xml:space="preserve" xmlns="http://www.w3.org/2000/svg" xmlns:vectornator="http://vectornator.io" xmlns:xlink="http://www.w3.org/1999/xlink">
<defs/>
<g id="Layer-2" vectornator:layerName="Layer 2">
<g opacity="1" vectornator:layerName="Group 1">
<path d="M383.429 79.7876C365.699 81.5889 351.242 83.6904 340.055 86.0921C328.869 88.4938 319.266 90.8955 311.245 93.2972C303.225 95.6989 294.149 98.8011 284.018 102.604C273.887 106.407 265.339 109.909 258.374 113.111C251.409 116.314 241.172 121.817 227.664 129.623C214.156 137.429 200.648 146.435 187.14 156.642C173.632 166.849 160.547 178.358 147.883 191.167C135.219 203.976 124.56 216.084 115.907 227.493C107.253 238.901 100.921 247.807 96.9112 254.212C92.901 260.616 88.5742 268.221 83.9308 277.028C79.2874 285.834 75.0662 294.74 71.267 303.747C67.4679 312.753 64.0909 321.76 61.136 330.766C58.1812 339.772 55.1208 351.781 51.9548 366.792C48.7889 381.802 46.6783 395.112 45.6229 406.72C44.5676 418.328 44.04 428.736 44.04 437.942C44.04 447.149 44.5676 457.556 45.6229 469.164C46.6783 480.773 48.8944 494.382 52.2714 509.993C55.6484 525.604 59.8697 540.515 64.9352 554.725C70.0007 568.935 76.227 583.145 83.6142 597.355C91.0014 611.565 97.6499 623.074 103.56 631.88C109.469 640.686 121.033 671.601 125.887 677.605C128.315 680.607 808.364 512.333 810.053 498.923C811.741 485.514 811.271 455.741 811.482 443.332C811.693 430.924 805.87 418.328 804.815 406.72C803.76 395.112 801.649 381.802 798.483 366.792C795.317 351.781 791.835 338.672 788.036 327.464C784.236 316.256 779.171 303.947 772.839 290.537C766.507 277.128 758.803 263.418 749.728 249.408C740.652 235.398 732.632 224.19 725.667 215.784C718.702 207.378 709.942 197.972 699.389 187.564C688.836 177.157 678.705 168.15 668.996 160.545C659.287 152.94 647.89 145.034 634.804 136.828C621.718 128.622 609.582 121.817 598.396 116.414C587.21 111.01 574.335 105.706 559.771 100.502C545.208 95.2986 530.539 90.9956 515.765 87.5931C500.99 84.1907 486.744 81.689 473.025 80.0878C459.306 78.4867 445.375 77.586 431.234 77.3859C417.093 77.1858 401.158 77.9863 383.429 79.7876Z" fill="#fede5a" fill-rule="nonzero" opacity="1" stroke="none" vectornator:layerName="Curve 2"/>
<g opacity="1" vectornator:layerName="Group 1">
<path d="M432.171 1.11053C417.397 0.899471 402.633 1.40666 387.859 2.67303C373.085 3.93941 358.087 6.06191 342.89 9.01678C327.694 11.9717 312.087 15.9825 296.046 21.048C280.006 26.1135 267.333 30.6628 258.046 34.673C248.76 38.6832 238.311 43.7397 226.703 49.8605C215.094 55.9813 203.397 62.9575 191.578 70.7668C179.758 78.5761 168.568 86.6993 158.015 95.1418C147.462 103.584 136.374 113.596 124.765 125.204C113.157 136.813 102.911 148.104 94.0464 159.079C85.1818 170.055 76.2158 182.626 67.1401 196.767C58.0644 210.908 50.5811 223.885 44.6714 235.704C38.7616 247.524 33.8066 258.48 29.7964 268.611C25.7862 278.742 21.471 291.851 16.8276 307.892C12.1843 323.933 8.78202 337.854 6.67139 349.673C4.56076 361.493 2.87526 374.906 1.60889 389.892C0.342512 404.877-0.164675 419.103 0.0463877 432.611C0.25745 446.119 1.40451 461.421 3.51514 478.517C5.62576 495.613 7.8497 509.331 10.1714 519.673C12.4931 530.015 15.1228 540.058 18.0776 549.767C21.0325 559.476 24.2006 568.746 27.5776 577.611C30.9546 586.475 35.067 596.081 39.9214 606.423C44.7758 616.765 51.8534 629.64 61.1401 645.048C70.4269 660.456 79.2914 673.667 87.7339 684.642C96.1764 695.617 102.076 702.796 105.453 706.173C108.83 709.55 113.886 713.662 120.64 718.517C127.394 723.371 134.909 727.991 143.14 732.423C151.372 736.855 158.449 740.258 164.359 742.579C170.269 744.901 177.416 747.195 185.859 749.517C194.301 751.838 201.48 753.555 207.39 754.611C213.3 755.666 222.703 756.61 235.578 757.454C248.452 758.299 259.744 758.501 269.453 758.079C279.162 757.657 288.463 756.916 297.328 755.861C306.192 754.805 318.631 752.581 334.671 749.204C350.712 745.827 365.273 742.152 378.359 738.142C391.445 734.132 402.736 730.324 412.234 726.736C421.732 723.147 432.282 718.832 443.89 713.767C455.499 708.701 467.328 703.106 479.359 696.986C491.389 690.865 507.331 681.766 527.171 669.736C547.011 657.705 565.684 645.165 583.203 632.079C600.721 618.993 614.002 608.443 623.078 600.423C632.153 592.403 639.769 585.224 645.89 578.892C652.011 572.56 658.55 566.762 665.515 561.486C672.48 556.209 679.019 552.401 685.14 550.079C691.261 547.758 695.576 546.611 698.109 546.611C700.642 546.611 703.303 547.219 706.046 548.486C708.79 549.752 711.217 551.976 713.328 555.142C715.438 558.308 716.921 562.217 717.765 566.861C718.609 571.504 718.812 576.56 718.39 582.048C717.968 587.536 716.688 594.176 714.578 601.986C712.467 609.795 710.477 616.03 708.578 620.673C706.678 625.316 703.51 631.754 699.078 639.986C694.645 648.217 690.299 655.497 686.078 661.829C681.856 668.161 676.496 675.442 669.953 683.673C663.41 691.904 655.287 701.105 645.578 711.236C635.869 721.367 627.746 729.256 621.203 734.954C614.66 740.653 606.536 747.223 596.828 754.611C587.119 761.998 577.279 768.841 567.359 775.173C557.439 781.505 547.732 787.201 538.234 792.267C528.736 797.332 517.78 802.521 505.328 807.798C492.875 813.075 482.426 817.086 473.984 819.829C465.541 822.573 455.093 825.203 442.64 827.736C430.187 830.268 422.571 832.055 419.828 833.111C417.084 834.166 414.993 835.445 413.515 836.923C412.038 838.4 411.195 839.985 410.984 841.673C410.773 843.362 411.616 845.148 413.515 847.048C415.415 848.948 417.405 850.095 419.515 850.517C421.626 850.939 427.556 851.04 437.265 850.829C446.974 850.618 459.311 849.674 474.296 847.986C489.282 846.297 502.665 844.206 514.484 841.673C526.303 839.14 539.311 835.637 553.453 831.204C567.594 826.772 580.976 821.817 593.64 816.329C606.304 810.842 619.921 803.998 634.484 795.767C649.047 787.535 661.517 779.716 671.859 772.329C682.201 764.942 692.314 757.022 702.234 748.579C712.154 740.137 722.064 730.734 731.984 720.392C741.904 710.05 750.901 699.835 758.921 689.704C766.942 679.573 774.628 668.789 782.015 657.392C789.402 645.994 796.582 633.556 803.546 620.048C810.511 606.54 816.309 593.868 820.953 582.048C825.596 570.229 829.942 557.353 833.953 543.423C837.963 529.493 841.131 516.212 843.453 503.548C845.774 490.884 847.561 477.065 848.828 462.079C850.094 447.094 850.601 432.837 850.39 419.329C850.179 405.821 849.235 391.666 847.546 376.892C845.858 362.117 843.532 347.994 840.578 334.486C837.623 320.978 834.15 308.001 830.14 295.548C826.13 283.095 822.018 271.804 817.796 261.673C813.575 251.542 807.98 239.915 801.015 226.829C794.05 213.743 787.074 201.945 780.109 191.392C773.144 180.839 765.255 170.054 756.39 159.079C747.526 148.104 737.28 136.813 725.671 125.204C714.063 113.596 702.132 102.944 689.89 93.2355C677.649 83.5267 667.504 76.0433 659.484 70.7668C651.464 65.4902 640.609 59.154 626.89 51.7668C613.171 44.3796 601.677 38.6832 592.39 34.673C583.103 30.6628 572.015 26.5505 559.14 22.3293C546.265 18.108 532.11 14.3 516.703 10.923C501.295 7.54603 487.07 5.11922 473.984 3.64178C460.898 2.16435 446.946 1.3216 432.171 1.11053ZM431.234 45.423C445.375 45.6341 459.296 46.5783 473.015 48.2668C486.734 49.9553 500.991 52.6162 515.765 56.2043C530.539 59.7923 545.202 64.3104 559.765 69.798C574.328 75.2857 587.204 80.8806 598.39 86.5793C609.576 92.278 621.711 99.457 634.796 108.111C647.882 116.764 659.275 125.09 668.984 133.111C678.693 141.131 688.837 150.635 699.39 161.611C709.943 172.586 718.706 182.527 725.671 191.392C732.636 200.256 740.658 212.055 749.734 226.829C758.81 241.604 766.496 256.063 772.828 270.204C779.16 284.345 784.247 297.322 788.046 309.142C791.846 320.961 795.318 334.781 798.484 350.611C801.65 366.44 803.772 380.494 804.828 392.736C805.883 404.977 806.289 417.65 806.078 430.736C805.867 443.821 804.922 457.407 803.234 471.548C801.545 485.689 800.5 493.001 800.078 493.423C799.867 493.634 799.632 493.837 799.421 494.048C798.683 490.143 797.941 486.234 797.203 482.329C795.725 474.52 793.533 466.397 790.578 457.954C787.623 449.512 784.962 443.074 782.64 438.642C780.318 434.209 777.049 429.02 772.828 423.111C768.606 417.201 764.393 412.246 760.171 408.236C755.95 404.225 751.198 400.651 745.921 397.486C740.645 394.32 735.69 391.994 731.046 390.517C726.403 389.039 721.448 388.095 716.171 387.673C710.895 387.251 704.996 387.555 698.453 388.611C691.91 389.666 686.822 390.844 683.234 392.111C679.646 393.377 675.432 395.265 670.578 397.798C665.723 400.331 659.59 404.342 652.203 409.829C644.815 415.317 637.972 421.216 631.64 427.548C625.308 433.88 617.489 441.059 608.203 449.079C598.916 457.1 588.803 465.324 577.828 473.767C566.852 482.209 555.764 490.13 544.578 497.517C533.391 504.904 522.201 511.677 511.015 517.798C499.829 523.919 494.132 528.772 493.921 532.361C493.71 535.949 493.07 539.624 492.015 543.423C490.96 547.222 488.869 551.873 485.703 557.361C482.537 562.848 478.393 567.803 473.328 572.236C468.262 576.668 462.566 580.14 456.234 582.673C449.902 585.206 443.8 586.688 437.89 587.111C431.98 587.533 426.385 587.228 421.109 586.173C415.832 585.118 410.877 583.432 406.234 581.111C401.59 578.789 397.58 576.026 394.203 572.861C390.826 569.695 383.444 569.289 372.046 571.611C360.649 573.932 350.2 575.516 340.703 576.361C331.205 577.205 321.466 577.408 311.546 576.986C301.626 576.563 292.559 575.416 284.328 573.517C276.096 571.617 270.298 569.932 266.921 568.454C263.544 566.977 260.478 565.26 257.734 563.361C254.99 561.461 252.766 559.573 251.078 557.673C249.389 555.773 248.141 553.885 247.296 551.986C246.452 550.086 246.148 547.761 246.359 545.017C246.57 542.273 247.413 539.846 248.89 537.736C250.368 535.625 252.459 533.705 255.203 532.017C257.946 530.328 261.419 528.877 265.64 527.611C269.861 526.344 271.984 525.064 271.984 523.798C271.984 522.532 271.578 521.283 270.734 520.017C269.89 518.75 267.666 516.526 264.078 513.361C260.49 510.195 257.017 507.971 253.64 506.704C250.263 505.438 245.917 504.595 240.64 504.173C235.364 503.751 230.104 503.954 224.828 504.798C219.551 505.642 212.879 507.663 204.859 510.829C196.839 513.995 189.457 517.772 182.703 522.204C175.949 526.637 169.41 531.927 163.078 538.048C156.746 544.169 151.252 550.505 146.609 557.048C141.966 563.591 137.752 571.176 133.953 579.829C130.154 588.483 127.524 596.403 126.046 603.579C124.569 610.755 123.726 618.137 123.515 625.736C123.304 633.334 123.811 641.457 125.078 650.111C125.711 654.437 126.351 658.784 126.984 663.111C124.557 659.945 122.13 656.776 119.703 653.611C114.848 647.279 109.456 639.46 103.546 630.173C97.6366 620.886 90.9961 608.752 83.6089 593.767C76.2217 578.781 69.9869 563.783 64.9214 548.798C59.8559 533.813 55.6421 518.105 52.2651 501.642C48.8881 485.179 46.6642 470.821 45.6089 458.579C44.5536 446.338 44.0464 435.351 44.0464 425.642C44.0464 415.933 44.5536 404.977 45.6089 392.736C46.6642 380.494 48.7867 366.44 51.9526 350.611C55.1186 334.781 58.1853 322.14 61.1401 312.642C64.095 303.144 67.466 293.64 71.2651 284.142C75.0643 274.644 79.278 265.241 83.9214 255.954C88.5647 246.668 92.9112 238.646 96.9214 231.892C100.932 225.138 107.268 215.766 115.921 203.736C124.575 191.705 135.226 178.931 147.89 165.423C160.554 151.915 173.632 139.781 187.14 129.017C200.648 118.253 214.163 108.748 227.671 100.517C241.179 92.2853 251.394 86.4875 258.359 83.1105C265.324 79.7336 273.884 76.027 284.015 72.0168C294.146 68.0066 303.214 64.737 311.234 62.2043C319.254 59.6715 328.86 57.1433 340.046 54.6105C351.233 52.0778 365.692 49.8538 383.421 47.9543C401.151 46.0547 417.093 45.212 431.234 45.423Z" fill="#3f0962" fill-rule="nonzero" opacity="1" stroke="none" vectornator:layerName="Curve 3"/>
<path d="M446.114 109.379C444.426 114.234 441.365 117.294 436.933 118.561C432.501 119.827 430.073 121.199 429.651 122.676C429.229 124.154 429.44 125.209 430.285 125.842C431.129 126.475 433.556 127.32 437.566 128.375C441.576 129.43 444.215 132.174 445.481 136.606C446.747 141.039 448.119 143.466 449.597 143.888C451.074 144.31 452.235 143.994 453.079 142.938C453.924 141.883 454.768 139.561 455.612 135.973C456.456 132.385 459.2 129.852 463.843 128.375C468.487 126.898 471.02 125.526 471.442 124.259C471.864 122.993 471.653 121.938 470.809 121.093C469.964 120.249 467.537 119.299 463.527 118.244C459.517 117.189 456.773 114.339 455.295 109.696C453.818 105.053 452.341 102.625 450.863 102.414C449.386 102.203 447.803 104.525 446.114 109.379Z" fill="#3f0962" fill-rule="nonzero" opacity="1" stroke="none"/>
<path d="M556.289 154.019C555.023 155.285 553.44 159.19 551.54 165.733C549.64 172.276 545.208 176.603 538.243 178.713C531.278 180.824 527.373 182.301 526.529 183.146C525.685 183.99 525.263 185.256 525.263 186.945C525.263 188.633 525.685 189.9 526.529 190.744C527.373 191.588 531.172 192.96 537.926 194.86C544.68 196.759 549.218 201.297 551.54 208.473C553.862 215.649 555.55 219.66 556.605 220.504C557.661 221.348 558.611 221.77 559.455 221.77C560.299 221.77 561.46 221.137 562.937 219.871C564.415 218.604 565.998 214.805 567.686 208.473C569.375 202.141 573.913 197.709 581.3 195.176C588.687 192.644 592.697 190.955 593.33 190.111C593.964 189.267 594.28 188.211 594.28 186.945C594.28 185.678 593.541 184.412 592.064 183.146C590.587 181.879 586.787 180.402 580.667 178.713C574.546 177.025 570.325 172.593 568.003 165.416C565.681 158.24 564.204 154.336 563.571 153.703C562.937 153.069 561.882 152.647 560.405 152.436C558.927 152.225 557.555 152.753 556.289 154.019Z" fill="#3f0962" fill-rule="nonzero" opacity="1" stroke="none"/>
<path d="M233.363 161.301C222.388 162.778 213.84 164.572 207.719 166.683C201.598 168.793 196.638 170.799 192.839 172.698C189.04 174.598 185.135 176.814 181.125 179.347C177.115 181.879 172.999 184.94 168.778 188.528C164.557 192.116 160.335 196.232 156.114 200.875C151.893 205.518 148.833 209.423 146.933 212.589C145.033 215.755 144.295 217.654 144.717 218.288C145.139 218.921 145.983 219.237 147.25 219.237C148.516 219.237 150.943 218.288 154.531 216.388C158.119 214.489 163.396 212.589 170.361 210.689C177.326 208.79 183.869 207.84 189.99 207.84C196.111 207.84 202.231 208.684 208.352 210.373C214.473 212.061 220.066 214.383 225.132 217.338C230.197 220.293 234.207 223.037 237.162 225.569C240.117 228.102 244.444 232.851 250.143 239.816C255.841 246.781 261.012 254.696 265.656 263.561C270.299 272.425 274.098 281.184 277.053 289.838C280.008 298.491 282.541 303.135 284.651 303.768C286.762 304.401 290.033 304.612 294.466 304.401C298.898 304.19 307.868 303.135 321.376 301.235C328.13 300.285 334.884 299.336 341.638 298.386C341.638 298.597 341.638 298.808 341.638 299.019C341.638 299.441 333.829 303.346 318.21 310.733C302.592 318.12 293.305 323.08 290.35 325.613C287.395 328.146 286.656 336.694 288.134 351.257C289.611 365.82 290.561 380.7 290.983 395.897C291.405 411.093 292.25 419.114 293.516 419.958C294.782 420.802 298.054 421.224 303.33 421.224C308.607 421.224 317.26 420.38 329.291 418.692C341.322 417.003 349.764 416.159 354.619 416.159C357.046 416.159 359.473 416.159 361.9 416.159C352.297 419.958 342.694 423.757 333.09 427.556C313.883 435.154 302.803 439.692 299.848 441.17C296.893 442.647 294.571 444.125 292.883 445.602C291.194 447.08 289.928 456.366 289.084 473.462C288.239 490.558 287.079 505.016 285.601 516.836C284.124 528.655 283.327 537.103 283.25 539.13C283.205 540.312 282.963 540.158 283.385 541.213C283.807 542.269 286.34 543.113 290.983 543.746C295.627 544.379 301.958 544.696 309.979 544.696C317.999 544.696 326.653 544.168 335.94 543.113C345.226 542.058 353.669 540.791 361.267 539.314C368.865 537.836 372.875 533.299 373.298 525.7C373.72 518.102 374.67 512.087 376.147 507.654C377.624 503.222 379.313 499.423 381.212 496.257C383.112 493.091 385.328 490.031 387.861 487.076C390.394 484.121 393.349 481.377 396.726 478.844C400.103 476.312 405.063 473.779 411.605 471.246C418.148 468.713 424.902 467.342 431.867 467.13C438.833 466.919 444.953 467.553 450.23 469.03C455.506 470.507 460.678 472.829 465.743 475.995C470.809 479.161 474.819 482.327 477.774 485.493C480.728 488.659 482.734 491.192 483.789 493.091C484.844 494.991 485.794 496.046 486.638 496.257C487.482 496.468 492.654 494.146 502.151 489.292C511.649 484.438 521.041 479.161 530.328 473.462C539.615 467.764 548.269 461.854 556.289 455.733C564.309 449.612 570.958 443.808 576.234 438.32C581.511 432.833 585.416 427.873 587.948 423.441C590.481 419.008 591.853 414.154 592.064 408.877C592.275 403.601 591.747 398.535 590.481 393.681C589.215 388.826 586.998 383.022 583.833 376.268C580.667 369.514 575.812 361.283 569.269 351.574C562.726 341.865 555.972 332.895 549.007 324.663C542.042 316.432 533.494 307.251 523.363 297.12C513.232 286.989 504.262 278.546 496.453 271.792C488.643 265.038 479.357 257.545 468.592 249.314C457.828 241.082 447.592 233.695 437.883 227.152C428.174 220.609 417.832 214.172 406.857 207.84C395.881 201.508 385.328 195.915 375.197 191.061C365.066 186.206 355.99 182.196 347.97 179.03C339.95 175.864 330.98 172.804 321.06 169.849C311.14 166.894 301.536 164.572 292.25 162.884C282.963 161.195 273.571 160.14 264.073 159.718C254.575 159.296 244.338 159.823 233.363 161.301Z" fill="#3f0962" fill-rule="nonzero" opacity="1" stroke="none"/>
<path d="M673.745 253.43C672.69 253.852 671.74 254.696 670.896 255.962C670.052 257.229 668.363 262.189 665.83 270.842C663.298 279.496 657.599 285.195 648.734 287.938C639.87 290.682 634.804 292.476 633.538 293.32C632.271 294.165 631.427 295.431 631.005 297.12C630.583 298.808 630.688 300.391 631.322 301.868C631.955 303.346 632.799 304.401 633.854 305.034C634.91 305.668 639.87 307.251 648.734 309.783C657.599 312.316 663.403 318.226 666.147 327.513C668.891 336.799 670.79 341.97 671.846 343.026C672.901 344.081 674.167 344.714 675.645 344.925C677.122 345.136 678.389 345.031 679.444 344.609C680.499 344.186 681.555 343.237 682.61 341.759C683.665 340.282 685.459 335.216 687.992 326.563C690.525 317.909 696.434 312.211 705.721 309.467C715.008 306.723 720.179 304.718 721.234 303.451C722.29 302.185 722.817 300.708 722.817 299.019C722.817 297.331 722.079 295.748 720.601 294.27C719.124 292.793 713.953 290.788 705.088 288.255C696.223 285.722 690.419 279.812 687.675 270.526C684.932 261.239 683.032 256.068 681.977 255.013C680.921 253.957 679.549 253.324 677.861 253.113C676.172 252.902 674.801 253.007 673.745 253.43Z" fill="#3f0962" fill-rule="nonzero" opacity="1" stroke="none"/>
<path d="M193.472 294.587C191.784 299.23 188.723 302.291 184.291 303.768C179.859 305.245 177.432 306.723 177.009 308.2C176.587 309.678 176.693 310.733 177.326 311.366C177.959 311.999 180.281 312.844 184.291 313.899C188.301 314.954 190.94 317.593 192.206 321.814C193.472 326.035 194.422 328.462 195.055 329.096C195.688 329.729 196.533 330.045 197.588 330.045C198.643 330.045 199.488 329.729 200.121 329.096C200.754 328.462 201.598 326.141 202.654 322.13C203.709 318.12 206.347 315.482 210.568 314.216C214.79 312.949 217.217 311.999 217.85 311.366C218.483 310.733 218.8 309.889 218.8 308.834C218.8 307.778 216.478 306.406 211.835 304.718C207.191 303.029 204.236 300.074 202.97 295.853C201.704 291.632 200.754 289.205 200.121 288.572C199.488 287.938 198.643 287.622 197.588 287.622C196.533 287.622 195.161 289.943 193.472 294.587Z" fill="#3f0962" fill-rule="nonzero" opacity="1" stroke="none"/>
<path d="M93.112 336.061C92.0567 337.116 90.5793 341.021 88.6797 347.775C86.7801 354.529 82.4534 358.855 75.6994 360.755C68.9454 362.654 65.0407 364.026 63.9854 364.871C62.9301 365.715 62.2969 366.77 62.0858 368.037C61.8748 369.303 62.4024 370.675 63.6688 372.152C64.9352 373.63 68.8398 375.318 75.3828 377.218C81.9257 379.117 86.358 383.655 88.6797 390.831C91.0014 398.007 92.5844 401.912 93.4286 402.545C94.2729 403.178 95.4337 403.495 96.9112 403.495C98.3886 403.495 99.655 402.862 100.71 401.596C101.766 400.329 103.137 396.53 104.826 390.198C106.515 383.866 111.158 379.434 118.756 376.901C126.354 374.368 130.365 372.152 130.787 370.253C131.209 368.353 130.787 366.77 129.52 365.504C128.254 364.237 124.349 362.654 117.806 360.755C111.263 358.855 106.937 354.423 104.826 347.458C102.715 340.493 101.132 336.588 100.077 335.744C99.0218 334.9 97.8609 334.478 96.5946 334.478C95.3282 334.478 94.1673 335.005 93.112 336.061Z" fill="#3f0962" fill-rule="nonzero" opacity="1" stroke="none"/>
<path d="M191.256 389.565C189.779 391.253 187.774 396.424 185.241 405.078C182.708 413.732 176.693 419.536 167.195 422.491C157.697 425.446 152.526 427.451 151.682 428.506C150.838 429.561 150.416 431.039 150.416 432.938C150.416 434.838 151.26 436.526 152.948 438.004C154.637 439.481 159.808 441.486 168.461 444.019C177.115 446.552 182.919 452.567 185.874 462.065C188.829 471.563 190.834 476.734 191.889 477.578C192.945 478.422 194.422 478.844 196.322 478.844C198.221 478.844 199.91 478 201.387 476.312C202.865 474.623 204.87 469.452 207.402 460.799C209.935 452.145 215.95 446.341 225.448 443.386C234.946 440.431 240.117 438.426 240.961 437.371C241.806 436.315 242.228 434.838 242.228 432.938C242.228 431.039 241.383 429.35 239.695 427.873C238.006 426.395 232.835 424.39 224.182 421.858C215.528 419.325 209.724 413.309 206.769 403.812C203.814 394.314 201.809 389.143 200.754 388.299C199.699 387.454 198.221 387.032 196.322 387.032C194.422 387.032 192.734 387.876 191.256 389.565Z" fill="#3f0962" fill-rule="nonzero" opacity="1" stroke="none"/>
<path d="M409.706 506.072C407.384 508.604 405.485 511.77 404.007 515.569C402.53 519.368 401.897 523.695 402.108 528.55C402.319 533.404 403.48 537.836 405.59 541.847C407.701 545.857 410.761 549.339 414.771 552.294C418.782 555.249 422.686 557.149 426.485 557.993C430.285 558.837 433.978 559.048 437.566 558.626C441.154 558.204 444.637 557.149 448.014 555.46C451.391 553.772 454.346 551.555 456.878 548.812C459.411 546.068 461.311 542.902 462.577 539.314C463.21 537.52 463.843 535.726 464.477 533.932C463.316 534.565 462.155 535.198 460.994 535.831C458.672 537.098 456.245 538.047 453.712 538.681C451.18 539.314 448.014 539.525 444.215 539.314C440.416 539.103 436.933 538.364 433.767 537.098C430.601 535.831 427.752 534.143 425.219 532.032C422.686 529.922 420.47 527.283 418.571 524.117C416.671 520.951 415.405 518.102 414.771 515.569C414.138 513.037 413.927 510.187 414.138 507.021C414.244 505.438 414.349 503.855 414.455 502.272C414.244 502.272 414.033 502.272 413.822 502.272C413.4 502.272 412.028 503.539 409.706 506.072Z" fill="#3f0962" fill-rule="nonzero" opacity="1" stroke="none" vectornator:layerName="Curve"/>
</g>
</g>
</g>
</svg>
