<?xml version="1.0" encoding="UTF-8" standalone="no"?>
<!DOCTYPE svg PUBLIC "-//W3C//DTD SVG 1.1//EN" "http://www.w3.org/Graphics/SVG/1.1/DTD/svg11.dtd">
<!-- Created with Vectornator (http://vectornator.io/) -->
<svg height="100%" stroke-miterlimit="10" style="fill-rule:nonzero;clip-rule:evenodd;stroke-linecap:round;stroke-linejoin:round;" version="1.1" viewBox="0 0 870 1014" width="100%" xml:space="preserve" xmlns="http://www.w3.org/2000/svg" xmlns:vectornator="http://vectornator.io" xmlns:xlink="http://www.w3.org/1999/xlink">
<defs/>
<g id="Layer-2" vectornator:layerName="Layer 2">
<g opacity="1" vectornator:layerName="Group 1">
<path d="M392.174 81.8271C374.04 83.6694 359.253 85.8189 347.811 88.2753C336.37 90.7318 326.548 93.1883 318.344 95.6449C310.141 98.1013 300.858 101.274 290.496 105.164C280.134 109.053 271.391 112.636 264.267 115.911C257.143 119.186 246.673 124.815 232.857 132.799C219.04 140.782 205.224 149.995 191.408 160.435C177.592 170.874 164.209 182.645 151.256 195.747C138.303 208.848 127.401 221.232 118.551 232.9C109.699 244.57 103.223 253.679 99.1215 260.229C95.0199 266.78 90.5944 274.558 85.8451 283.566C81.0958 292.573 76.7783 301.682 72.8924 310.895C69.0067 320.106 65.5527 329.317 62.5304 338.53C59.5082 347.741 56.378 360.024 53.1398 375.377C49.9017 390.73 47.7429 404.344 46.6635 416.216C45.5841 428.089 45.0445 438.733 45.0445 448.15C45.0445 457.566 45.5841 468.212 46.6635 480.084C47.7429 491.957 50.0096 505.878 53.4636 521.845C56.9176 537.812 61.2352 553.063 66.4162 567.597C71.5973 582.131 77.9656 596.665 85.5213 611.199C93.0769 625.733 99.8771 637.504 105.922 646.512C111.966 655.519 123.794 687.139 128.758 693.28C131.242 696.35 826.801 524.237 828.529 510.522C830.255 496.806 829.774 466.355 829.99 453.663C830.206 440.971 824.25 428.089 823.171 416.216C822.092 404.344 819.933 390.73 816.695 375.377C813.456 360.024 809.895 346.615 806.009 335.152C802.123 323.688 796.942 311.099 790.466 297.383C783.989 283.669 776.11 269.646 766.828 255.316C757.545 240.987 749.342 229.523 742.218 220.925C735.094 212.328 726.134 202.706 715.341 192.062C704.547 181.417 694.185 172.205 684.254 164.427C674.324 156.647 662.667 148.562 649.283 140.169C635.898 131.775 623.485 124.815 612.044 119.288C600.603 113.762 587.434 108.337 572.538 103.014C557.643 97.6919 542.639 93.2907 527.528 89.8107C512.417 86.3307 497.846 83.7718 483.814 82.1342C469.782 80.4965 455.533 79.5753 441.07 79.3706C426.606 79.1659 410.308 79.9848 392.174 81.8271Z" fill="#fede5a" fill-rule="nonzero" opacity="1" stroke="none" vectornator:layerName="Curve 2"/>
<g opacity="1" vectornator:layerName="Group 1">
<path d="M442.028 1.35557C426.917 1.1397 411.816 1.65845 396.705 2.95371C381.594 4.24897 366.254 6.41988 350.711 9.44215C335.168 12.4644 319.205 16.5668 302.798 21.7478C286.392 26.9289 273.43 31.5819 263.931 35.6836C254.434 39.7852 243.746 44.9571 231.874 51.2175C220 57.4779 208.036 64.6131 195.947 72.6005C183.858 80.588 172.413 88.8964 161.619 97.5314C150.825 106.166 139.484 116.407 127.611 128.279C115.738 140.153 105.258 151.702 96.1914 162.927C87.1246 174.152 77.9541 187.01 68.6714 201.475C59.3887 215.938 51.7347 229.211 45.6903 241.3C39.6457 253.389 34.5777 264.594 30.476 274.956C26.3743 285.318 21.9607 298.727 17.2114 315.134C12.4622 331.54 8.98232 345.779 6.82355 357.868C4.66478 369.957 2.94084 383.677 1.64559 399.004C0.350324 414.331-0.168431 428.882 0.0474457 442.697C0.263322 456.513 1.43654 472.164 3.59531 489.651C5.75407 507.137 8.02873 521.168 10.4034 531.745C12.778 542.323 15.4677 552.595 18.4899 562.526C21.5122 572.456 24.7526 581.938 28.2066 591.004C31.6606 600.071 35.8668 609.896 40.8319 620.474C45.797 631.052 53.0361 644.221 62.5346 659.98C72.0332 675.738 81.0999 689.251 89.7349 700.477C98.37 711.702 104.404 719.045 107.858 722.499C111.312 725.953 116.483 730.159 123.392 735.125C130.3 740.089 137.986 744.815 146.405 749.348C154.824 753.881 162.063 757.361 168.108 759.735C174.152 762.11 181.462 764.457 190.098 766.832C198.733 769.206 206.075 770.962 212.12 772.041C218.165 773.121 227.782 774.087 240.951 774.95C254.119 775.813 265.668 776.021 275.599 775.589C285.529 775.157 295.042 774.399 304.109 773.319C313.176 772.24 325.898 769.966 342.304 766.512C358.711 763.058 373.604 759.299 386.989 755.197C400.373 751.095 411.922 747.2 421.636 743.53C431.351 739.86 442.141 735.447 454.014 730.266C465.888 725.085 477.987 719.362 490.292 713.102C502.597 706.842 518.902 697.535 539.195 685.23C559.487 672.926 578.586 660.1 596.505 646.715C614.422 633.331 628.006 622.54 637.289 614.337C646.571 606.134 654.361 598.792 660.621 592.315C666.882 585.839 673.57 579.908 680.694 574.511C687.818 569.115 694.506 565.22 700.767 562.845C707.027 560.47 711.441 559.297 714.031 559.297C716.622 559.297 719.344 559.92 722.149 561.215C724.956 562.511 727.438 564.785 729.597 568.023C731.756 571.262 733.272 575.26 734.136 580.009C734.999 584.759 735.207 589.93 734.775 595.543C734.343 601.156 733.034 607.948 730.876 615.935C728.717 623.923 726.681 630.299 724.739 635.049C722.796 639.798 719.556 646.383 715.022 654.802C710.488 663.221 706.043 670.667 701.726 677.144C697.408 683.62 691.925 691.066 685.233 699.486C678.541 707.905 670.233 717.315 660.302 727.677C650.372 738.039 642.064 746.109 635.371 751.937C628.679 757.766 620.37 764.485 610.44 772.041C600.51 779.597 590.445 786.596 580.299 793.073C570.153 799.549 560.225 805.375 550.51 810.557C540.795 815.737 529.589 821.045 516.853 826.442C504.116 831.838 493.429 835.941 484.795 838.747C476.159 841.554 465.473 844.244 452.736 846.834C439.999 849.424 432.209 851.252 429.403 852.331C426.597 853.411 424.458 854.72 422.946 856.231C421.436 857.742 420.573 859.362 420.358 861.09C420.142 862.816 421.004 864.644 422.946 866.587C424.89 868.53 426.925 869.704 429.083 870.135C431.242 870.567 437.308 870.67 447.238 870.454C457.169 870.239 469.787 869.273 485.114 867.546C500.441 865.819 514.13 863.68 526.218 861.09C538.307 858.499 551.612 854.916 566.076 850.382C580.54 845.849 594.227 840.781 607.18 835.168C620.132 829.555 634.06 822.555 648.955 814.137C663.85 805.717 676.605 797.72 687.183 790.164C697.761 782.609 708.104 774.508 718.25 765.872C728.397 757.238 738.533 747.62 748.679 737.042C758.825 726.465 768.027 716.017 776.23 705.655C784.434 695.292 792.296 684.262 799.851 672.606C807.407 660.948 814.75 648.226 821.873 634.41C828.997 620.594 834.927 607.632 839.677 595.543C844.426 583.454 848.871 570.285 852.974 556.037C857.075 541.789 860.315 528.206 862.69 515.253C865.064 502.3 866.892 488.166 868.188 472.838C869.483 457.511 870.001 442.929 869.786 429.113C869.57 415.297 868.604 400.819 866.877 385.708C865.15 370.596 862.771 356.15 859.75 342.334C856.727 328.518 853.175 315.246 849.074 302.509C844.972 289.772 840.766 278.223 836.448 267.861C832.131 257.499 826.408 245.607 819.284 232.222C812.161 218.838 805.025 206.771 797.902 195.977C790.778 185.183 782.709 174.152 773.642 162.927C764.575 151.702 754.096 140.153 742.222 128.279C730.349 116.407 718.146 105.512 705.625 95.5818C693.105 85.6514 682.728 77.9974 674.525 72.6005C666.322 67.2036 655.22 60.7228 641.188 53.1671C627.156 45.6115 615.4 39.7852 605.901 35.6836C596.402 31.5819 585.061 27.3758 571.893 23.0582C558.724 18.7408 544.246 14.8459 528.488 11.3919C512.728 7.93786 498.179 5.45569 484.795 3.94456C471.41 2.43342 457.14 1.57145 442.028 1.35557ZM441.07 46.6788C455.533 46.8946 469.772 47.8603 483.803 49.5873C497.835 51.3143 512.418 54.036 527.528 57.7059C542.639 61.3758 557.637 65.9969 572.532 71.6097C587.427 77.2225 600.597 82.945 612.038 88.7736C623.479 94.6023 635.891 101.945 649.274 110.796C662.659 119.647 674.312 128.163 684.242 136.366C694.173 144.57 704.548 154.291 715.342 165.516C726.135 176.742 735.098 186.91 742.222 195.977C749.346 205.043 757.551 217.111 766.834 232.222C776.117 247.334 783.978 262.123 790.455 276.587C796.931 291.05 802.134 304.323 806.02 316.413C809.906 328.501 813.457 342.636 816.696 358.827C819.934 375.018 822.104 389.392 823.184 401.912C824.263 414.434 824.679 427.396 824.463 440.779C824.247 454.163 823.281 468.059 821.554 482.523C819.827 496.986 818.758 504.465 818.326 504.897C818.11 505.113 817.87 505.32 817.654 505.536C816.899 501.542 816.14 497.544 815.385 493.55C813.874 485.563 811.632 477.254 808.609 468.619C805.587 459.984 802.865 453.399 800.49 448.866C798.115 444.332 794.772 439.025 790.455 432.98C786.136 426.936 781.827 421.868 777.509 417.766C773.192 413.664 768.331 410.009 762.934 406.771C757.538 403.532 752.47 401.154 747.72 399.644C742.971 398.132 737.903 397.166 732.505 396.735C727.109 396.303 721.075 396.614 714.383 397.693C707.691 398.773 702.487 399.978 698.817 401.273C695.147 402.569 690.837 404.5 685.872 407.091C680.907 409.682 674.634 413.784 667.078 419.396C659.522 425.009 652.523 431.043 646.046 437.519C639.57 443.996 631.573 451.338 622.075 459.541C612.576 467.745 602.232 476.157 591.007 484.792C579.781 493.427 568.44 501.528 556.999 509.084C545.557 516.64 534.111 523.567 522.67 529.828C511.229 536.088 505.402 541.052 505.186 544.722C504.97 548.392 504.316 552.152 503.237 556.037C502.158 559.923 500.019 564.68 496.781 570.292C493.543 575.905 489.304 580.973 484.124 585.506C478.942 590.04 473.116 593.592 466.64 596.182C460.163 598.773 453.922 600.289 447.877 600.721C441.833 601.153 436.11 600.841 430.714 599.762C425.316 598.683 420.248 596.959 415.499 594.584C410.749 592.21 406.648 589.384 403.194 586.146C399.74 582.907 392.19 582.493 380.532 584.867C368.875 587.242 358.187 588.862 348.474 589.725C338.759 590.59 328.798 590.797 318.652 590.365C308.505 589.933 299.232 588.76 290.813 586.818C282.393 584.874 276.463 583.151 273.009 581.639C269.555 580.128 266.419 578.372 263.612 576.429C260.806 574.487 258.531 572.554 256.805 570.612C255.077 568.669 253.801 566.738 252.936 564.794C252.073 562.852 251.762 560.473 251.978 557.668C252.194 554.861 253.056 552.379 254.567 550.219C256.078 548.061 258.217 546.098 261.024 544.371C263.829 542.644 267.381 541.159 271.699 539.864C276.016 538.569 278.187 537.259 278.187 535.965C278.187 534.669 277.772 533.392 276.909 532.097C276.046 530.801 273.771 528.527 270.101 525.288C266.431 522.05 262.879 519.777 259.425 518.481C255.971 517.186 251.526 516.324 246.128 515.892C240.732 515.46 235.352 515.668 229.956 516.531C224.558 517.394 217.734 519.462 209.531 522.7C201.328 525.938 193.778 529.801 186.87 534.334C179.962 538.867 173.274 544.279 166.797 550.54C160.321 556.8 154.702 563.281 149.953 569.973C145.204 576.665 140.894 584.423 137.008 593.274C133.123 602.125 130.433 610.226 128.921 617.565C127.41 624.905 126.548 632.455 126.332 640.227C126.116 647.999 126.635 656.307 127.931 665.157C128.578 669.583 129.233 674.029 129.88 678.454C127.398 675.216 124.916 671.976 122.433 668.737C117.467 662.262 111.952 654.265 105.908 644.766C99.8635 635.267 93.0715 622.856 85.5158 607.529C77.9602 592.202 71.5832 576.862 66.4021 561.535C61.2211 546.207 56.9112 530.142 53.4572 513.303C50.0031 496.465 47.7285 481.779 46.6491 469.258C45.5698 456.737 45.051 445.5 45.051 435.57C45.051 425.639 45.5698 414.434 46.6491 401.912C47.7285 389.392 49.8994 375.018 53.1375 358.827C56.3757 342.636 59.5124 329.706 62.5346 319.993C65.5569 310.278 69.0048 300.556 72.8905 290.843C76.7764 281.128 81.0862 271.51 85.8355 262.012C90.5847 252.513 95.0303 244.309 99.132 237.401C103.234 230.493 109.715 220.907 118.565 208.602C127.416 196.297 138.31 183.232 151.263 169.416C164.216 155.6 177.592 143.189 191.408 132.179C205.224 121.169 219.048 111.448 232.864 103.029C246.68 94.6099 257.128 88.6799 264.252 85.2258C271.375 81.7718 280.131 77.9807 290.493 73.879C300.855 69.7773 310.13 66.4333 318.333 63.8427C326.535 61.2522 336.361 58.6663 347.802 56.0758C359.244 53.4852 374.033 51.2106 392.166 49.2677C410.3 47.3249 426.606 46.4628 441.07 46.6788Z" fill="#3f0962" fill-rule="nonzero" opacity="1" stroke="none" vectornator:layerName="Curve 3"/>
<path d="M456.289 112.094C454.562 117.059 451.432 120.189 446.899 121.484C442.365 122.78 439.882 124.183 439.45 125.694C439.019 127.206 439.235 128.285 440.099 128.932C440.962 129.579 443.444 130.444 447.546 131.523C451.647 132.602 454.347 135.408 455.641 139.942C456.936 144.476 458.34 146.958 459.851 147.39C461.362 147.821 462.55 147.497 463.413 146.418C464.277 145.339 465.14 142.964 466.004 139.294C466.867 135.624 469.673 133.034 474.422 131.523C479.172 130.011 481.763 128.609 482.195 127.313C482.626 126.018 482.41 124.938 481.547 124.075C480.683 123.211 478.201 122.24 474.099 121.161C469.998 120.082 467.191 117.167 465.679 112.418C464.169 107.668 462.658 105.186 461.146 104.97C459.636 104.754 458.016 107.129 456.289 112.094Z" fill="#3f0962" fill-rule="nonzero" opacity="1" stroke="none" vectornator:layerName="path"/>
<path d="M568.977 157.752C567.682 159.047 566.063 163.041 564.119 169.733C562.176 176.425 557.643 180.851 550.519 183.009C543.395 185.168 539.401 186.679 538.538 187.543C537.675 188.406 537.243 189.701 537.243 191.429C537.243 193.155 537.675 194.451 538.538 195.314C539.401 196.178 543.287 197.581 550.195 199.524C557.103 201.467 561.744 206.108 564.119 213.448C566.494 220.787 568.221 224.889 569.3 225.753C570.38 226.616 571.352 227.048 572.215 227.048C573.078 227.048 574.266 226.401 575.776 225.105C577.288 223.81 578.907 219.924 580.634 213.448C582.361 206.971 587.003 202.438 594.558 199.847C602.114 197.257 606.215 195.53 606.863 194.667C607.511 193.803 607.834 192.724 607.834 191.429C607.834 190.133 607.078 188.838 605.568 187.543C604.057 186.247 600.17 184.736 593.911 183.009C587.65 181.282 583.333 176.748 580.958 169.409C578.583 162.069 577.072 158.076 576.425 157.427C575.776 156.78 574.697 156.348 573.187 156.133C571.675 155.917 570.272 156.457 568.977 157.752Z" fill="#3f0962" fill-rule="nonzero" opacity="1" stroke="none" vectornator:layerName="path"/>
<path d="M238.686 165.2C227.46 166.71 218.717 168.545 212.457 170.705C206.196 172.863 201.123 174.913 197.237 176.857C193.352 178.8 189.358 181.067 185.256 183.656C181.155 186.247 176.945 189.378 172.627 193.048C168.31 196.718 163.992 200.926 159.675 205.676C155.357 210.425 152.228 214.419 150.284 217.658C148.341 220.896 147.586 222.838 148.018 223.487C148.449 224.134 149.313 224.457 150.608 224.457C151.903 224.457 154.386 223.487 158.056 221.543C161.725 219.6 167.123 217.658 174.247 215.714C181.37 213.772 188.063 212.8 194.323 212.8C200.584 212.8 206.843 213.663 213.104 215.391C219.365 217.118 225.085 219.492 230.267 222.515C235.447 225.537 239.549 228.343 242.571 230.934C245.594 233.524 250.019 238.382 255.848 245.506C261.676 252.629 266.965 260.725 271.715 269.791C276.464 278.858 280.35 287.817 283.372 296.668C286.394 305.519 288.985 310.269 291.143 310.916C293.302 311.564 296.648 311.779 301.182 311.564C305.715 311.348 314.89 310.269 328.706 308.325C335.614 307.354 342.522 306.383 349.43 305.411C349.43 305.627 349.43 305.843 349.43 306.059C349.43 306.49 341.443 310.485 325.468 318.04C309.493 325.595 299.995 330.669 296.972 333.259C293.95 335.85 293.194 344.593 294.706 359.488C296.216 374.383 297.188 389.603 297.62 405.146C298.051 420.689 298.916 428.893 300.21 429.756C301.505 430.619 304.852 431.051 310.248 431.051C315.646 431.051 324.496 430.188 336.801 428.46C349.107 426.734 357.741 425.871 362.707 425.871C365.189 425.871 367.672 425.871 370.154 425.871C360.332 429.756 350.51 433.642 340.687 437.527C321.042 445.299 309.709 449.94 306.687 451.452C303.664 452.963 301.29 454.473 299.563 455.985C297.836 457.496 296.541 466.995 295.677 484.481C294.813 501.966 293.627 516.754 292.115 528.844C290.604 540.932 289.789 549.572 289.71 551.646C289.664 552.854 289.417 552.698 289.848 553.777C290.28 554.857 292.871 555.72 297.62 556.368C302.37 557.015 308.845 557.339 317.049 557.339C325.252 557.339 334.103 556.799 343.602 555.72C353.1 554.641 361.735 553.345 369.507 551.834C377.278 550.323 381.379 545.681 381.812 537.91C382.244 530.139 383.215 523.986 384.726 519.452C386.237 514.919 387.964 511.034 389.907 507.795C391.85 504.557 394.117 501.427 396.707 498.405C399.298 495.383 402.32 492.576 405.774 489.985C409.228 487.396 414.302 484.805 420.993 482.214C427.685 479.623 434.593 478.22 441.717 478.004C448.842 477.788 455.101 478.436 460.499 479.947C465.895 481.458 471.185 483.833 476.366 487.071C481.547 490.309 485.649 493.548 488.671 496.786C491.692 500.024 493.744 502.614 494.823 504.557C495.902 506.501 496.874 507.58 497.737 507.795C498.6 508.011 503.89 505.636 513.604 500.672C523.319 495.706 532.925 490.309 542.424 484.481C551.922 478.652 560.774 472.608 568.977 466.347C577.18 460.087 583.98 454.15 589.377 448.537C594.774 442.925 598.768 437.852 601.358 433.318C603.949 428.785 605.352 423.82 605.568 418.422C605.784 413.025 605.243 407.845 603.949 402.88C602.654 397.914 600.386 391.978 597.149 385.07C593.911 378.162 588.945 369.742 582.253 359.813C575.561 349.882 568.653 340.707 561.529 332.288C554.405 323.869 545.662 314.478 535.3 304.116C524.938 293.753 515.763 285.119 507.776 278.211C499.788 271.303 490.29 263.639 479.28 255.22C468.27 246.8 457.801 239.245 447.87 232.553C437.94 225.86 427.362 219.277 416.137 212.8C404.91 206.324 394.117 200.603 383.754 195.638C373.392 190.673 364.109 186.571 355.906 183.333C347.704 180.095 338.529 176.965 328.383 173.943C318.236 170.92 308.413 168.545 298.916 166.819C289.417 165.091 279.811 164.012 270.096 163.581C260.381 163.149 249.911 163.688 238.686 165.2Z" fill="#3f0962" fill-rule="nonzero" opacity="1" stroke="none" vectornator:layerName="path"/>
<path d="M689.112 259.429C688.033 259.862 687.061 260.725 686.198 262.02C685.334 263.316 683.607 268.389 681.016 277.239C678.426 286.091 672.597 291.919 663.53 294.725C654.464 297.532 649.283 299.367 647.988 300.23C646.692 301.094 645.828 302.389 645.397 304.116C644.965 305.843 645.073 307.462 645.721 308.973C646.369 310.485 647.232 311.564 648.311 312.211C649.391 312.858 654.464 314.478 663.53 317.068C672.597 319.659 678.534 325.704 681.34 335.202C684.147 344.701 686.089 349.989 687.169 351.07C688.248 352.149 689.543 352.796 691.055 353.012C692.566 353.228 693.862 353.12 694.941 352.688C696.02 352.256 697.1 351.285 698.179 349.774C699.258 348.263 701.093 343.081 703.684 334.231C706.274 325.38 712.318 319.551 721.817 316.745C731.316 313.939 736.605 311.888 737.684 310.592C738.764 309.297 739.303 307.785 739.303 306.059C739.303 304.331 738.548 302.712 737.036 301.202C735.526 299.691 730.237 297.64 721.17 295.049C712.102 292.459 706.166 286.414 703.359 276.916C700.554 267.417 698.61 262.128 697.531 261.048C696.451 259.969 695.048 259.322 693.322 259.106C691.594 258.89 690.192 258.997 689.112 259.429Z" fill="#3f0962" fill-rule="nonzero" opacity="1" stroke="none" vectornator:layerName="path"/>
<path d="M197.885 301.526C196.158 306.275 193.027 309.404 188.494 310.916C183.961 312.427 181.479 313.939 181.046 315.449C180.615 316.961 180.723 318.04 181.37 318.687C182.018 319.335 184.393 320.199 188.494 321.278C192.596 322.357 195.295 325.055 196.59 329.374C197.885 333.691 198.856 336.173 199.504 336.821C200.151 337.469 201.015 337.792 202.095 337.792C203.174 337.792 204.038 337.469 204.685 336.821C205.333 336.173 206.196 333.799 207.276 329.697C208.355 325.595 211.053 322.897 215.371 321.601C219.689 320.307 222.171 319.335 222.819 318.687C223.466 318.04 223.79 317.177 223.79 316.097C223.79 315.018 221.415 313.614 216.667 311.888C211.917 310.16 208.894 307.138 207.599 302.821C206.304 298.503 205.333 296.021 204.685 295.373C204.038 294.725 203.174 294.402 202.095 294.402C201.015 294.402 199.612 296.776 197.885 301.526Z" fill="#3f0962" fill-rule="nonzero" opacity="1" stroke="none" vectornator:layerName="path"/>
<path d="M95.2357 343.945C94.1563 345.025 92.6452 349.018 90.7023 355.926C88.7594 362.834 84.334 367.26 77.4259 369.203C70.5179 371.145 66.5241 372.549 65.4448 373.412C64.3654 374.276 63.7178 375.355 63.5018 376.65C63.286 377.946 63.8257 379.349 65.1209 380.86C66.4162 382.372 70.4099 384.098 77.1021 386.041C83.7942 387.984 88.3276 392.625 90.7023 399.965C93.0769 407.305 94.6961 411.299 95.5595 411.946C96.4231 412.593 97.6103 412.918 99.1215 412.918C100.633 412.918 101.928 412.27 103.007 410.974C104.087 409.68 105.489 405.794 107.217 399.317C108.944 392.841 113.693 388.308 121.465 385.717C129.236 383.126 133.338 380.86 133.77 378.918C134.202 376.974 133.77 375.355 132.474 374.06C131.179 372.764 127.185 371.145 120.493 369.203C113.801 367.26 109.376 362.726 107.217 355.603C105.058 348.479 103.439 344.485 102.36 343.621C101.28 342.758 100.093 342.326 98.7977 342.326C97.5024 342.326 96.3151 342.866 95.2357 343.945Z" fill="#3f0962" fill-rule="nonzero" opacity="1" stroke="none" vectornator:layerName="path"/>
<path d="M195.618 398.67C194.107 400.396 192.057 405.685 189.466 414.537C186.875 423.387 180.723 429.325 171.008 432.347C161.294 435.368 156.005 437.42 155.142 438.499C154.278 439.578 153.847 441.09 153.847 443.032C153.847 444.976 154.71 446.702 156.436 448.214C158.164 449.724 163.453 451.775 172.303 454.366C181.155 456.957 187.091 463.109 190.113 472.824C193.136 482.538 195.187 487.827 196.266 488.69C197.346 489.554 198.856 489.985 200.8 489.985C202.742 489.985 204.47 489.122 205.98 487.396C207.492 485.668 209.543 480.379 212.132 471.528C214.723 462.677 220.875 456.741 230.59 453.719C240.305 450.696 245.594 448.645 246.457 447.565C247.321 446.486 247.753 444.976 247.753 443.032C247.753 441.09 246.888 439.362 245.162 437.852C243.434 436.34 238.145 434.289 229.295 431.699C220.444 429.109 214.507 422.956 211.485 413.242C208.463 403.527 206.412 398.238 205.333 397.374C204.254 396.511 202.742 396.079 200.8 396.079C198.856 396.079 197.13 396.942 195.618 398.67Z" fill="#3f0962" fill-rule="nonzero" opacity="1" stroke="none" vectornator:layerName="path"/>
<path d="M419.051 517.833C416.676 520.424 414.733 523.662 413.222 527.548C411.711 531.434 411.063 535.859 411.279 540.825C411.495 545.79 412.683 550.323 414.841 554.424C417 558.527 420.13 562.088 424.231 565.11C428.334 568.133 432.327 570.076 436.212 570.939C440.099 571.803 443.876 572.019 447.546 571.587C451.216 571.155 454.778 570.076 458.232 568.349C461.686 566.622 464.709 564.355 467.298 561.549C469.889 558.742 471.833 555.504 473.127 551.834C473.775 550 474.422 548.165 475.071 546.33C473.883 546.977 472.696 547.625 471.508 548.272C469.133 549.568 466.651 550.539 464.06 551.187C461.47 551.834 458.232 552.05 454.347 551.834C450.461 551.619 446.899 550.863 443.66 549.568C440.422 548.272 437.508 546.546 434.917 544.386C432.327 542.227 430.06 539.529 428.118 536.291C426.174 533.053 424.879 530.139 424.231 527.548C423.584 524.957 423.368 522.043 423.584 518.805C423.692 517.186 423.799 515.567 423.908 513.948C423.692 513.948 423.476 513.948 423.26 513.948C422.829 513.948 421.425 515.244 419.051 517.833Z" fill="#3f0962" fill-rule="nonzero" opacity="1" stroke="none" vectornator:layerName="Curve"/>
</g>
</g>
<g opacity="1" vectornator:layerName="Text 1">
<path d="M54.218 933.96C46.1587 933.96 39.9833 936.419 35.692 941.339C31.4007 946.258 29.255 953.218 29.255 962.22C29.255 971.326 31.6362 978.338 36.3985 983.258C41.1608 988.177 47.5717 990.637 55.631 990.637C59.9223 990.637 63.5595 990.061 66.5425 988.91C69.5255 987.758 72.3777 986.45 75.099 984.985C76.8783 986.45 78.2652 988.203 79.2595 990.244C80.2538 992.285 80.751 994.666 80.751 997.388C80.751 1001.68 78.3698 1005.32 73.6075 1008.3C68.8452 1011.28 61.597 1012.77 51.863 1012.77C44.8503 1012.77 38.2563 1011.78 32.081 1009.79C25.9057 1007.8 20.5153 1004.74 15.91 1000.61C11.3047 996.472 7.6675 991.238 4.9985 984.906C2.3295 978.574 0.995 971.012 0.995 962.22C0.995 954.056 2.27717 946.86 4.8415 940.632C7.40583 934.404 10.9122 929.145 15.3605 924.854C19.8088 920.562 25.016 917.318 30.982 915.12C36.948 912.922 43.3327 911.823 50.136 911.823C59.7653 911.823 67.2228 913.393 72.5085 916.533C77.7942 919.673 80.437 923.702 80.437 928.622C80.437 931.343 79.7567 933.698 78.396 935.687C77.0353 937.675 75.4653 939.245 73.686 940.397C70.9647 938.617 68.0602 937.1 64.9725 935.844C61.8848 934.588 58.3 933.96 54.218 933.96Z" fill="#3f0962" fill-rule="nonzero" opacity="1" stroke="none" vectornator:layerName="path"/>
<path d="M170.241 971.797C170.241 978.286 169.247 984.069 167.258 989.145C165.269 994.221 162.47 998.487 158.858 1001.94C155.247 1005.39 150.93 1008.01 145.906 1009.79C140.882 1011.57 135.282 1012.46 129.107 1012.46C122.932 1012.46 117.332 1011.52 112.308 1009.63C107.284 1007.75 102.967 1005.05 99.3555 1001.55C95.7445 998.042 92.9447 993.777 90.956 988.753C88.9673 983.729 87.973 978.077 87.973 971.797C87.973 965.621 88.9673 960.022 90.956 954.998C92.9447 949.974 95.7445 945.708 99.3555 942.202C102.967 938.696 107.284 936.001 112.308 934.117C117.332 932.233 122.932 931.291 129.107 931.291C135.282 931.291 140.882 932.259 145.906 934.195C150.93 936.131 155.247 938.853 158.858 942.359C162.47 945.865 165.269 950.131 167.258 955.155C169.247 960.179 170.241 965.726 170.241 971.797ZM115.291 971.797C115.291 978.181 116.521 983.074 118.981 986.476C121.44 989.878 124.868 991.579 129.264 991.579C133.66 991.579 137.035 989.852 139.391 986.398C141.746 982.944 142.923 978.077 142.923 971.797C142.923 965.517 141.719 960.676 139.312 957.274C136.905 953.872 133.503 952.172 129.107 952.172C124.711 952.172 121.309 953.872 118.902 957.274C116.495 960.676 115.291 965.517 115.291 971.797Z" fill="#3f0962" fill-rule="nonzero" opacity="1" stroke="none" vectornator:layerName="path"/>
<path d="M179.975 971.797C179.975 964.889 181.022 958.896 183.115 953.82C185.208 948.744 188.113 944.531 191.829 941.182C195.544 937.832 199.888 935.346 204.859 933.724C209.831 932.102 215.195 931.291 220.952 931.291C223.045 931.291 225.086 931.474 227.075 931.84C229.064 932.206 230.686 932.651 231.942 933.175L231.942 907.741C232.989 907.427 234.663 907.086 236.966 906.72C239.269 906.354 241.624 906.171 244.031 906.171C246.334 906.171 248.401 906.328 250.233 906.642C252.064 906.956 253.608 907.584 254.864 908.526C256.12 909.468 257.062 910.75 257.69 912.372C258.318 913.994 258.632 916.114 258.632 918.731L258.632 993.149C258.632 998.068 256.329 1001.99 251.724 1004.92C248.689 1006.91 244.764 1008.67 239.949 1010.18C235.134 1011.7 229.587 1012.46 223.307 1012.46C216.504 1012.46 210.407 1011.52 205.017 1009.63C199.626 1007.75 195.073 1005.03 191.358 1001.47C187.642 997.911 184.816 993.646 182.88 988.674C180.943 983.702 179.975 978.077 179.975 971.797ZM224.563 952.172C218.911 952.172 214.567 953.794 211.532 957.039C208.497 960.283 206.979 965.203 206.979 971.797C206.979 978.286 208.392 983.179 211.218 986.476C214.044 989.773 218.126 991.422 223.464 991.422C225.348 991.422 227.049 991.134 228.567 990.558C230.084 989.982 231.262 989.328 232.099 988.596L232.099 954.056C230.006 952.8 227.494 952.172 224.563 952.172Z" fill="#3f0962" fill-rule="nonzero" opacity="1" stroke="none" vectornator:layerName="path"/>
<path d="M315.623 1012.46C309.448 1012.46 303.717 1011.6 298.432 1009.87C293.146 1008.14 288.541 1005.55 284.615 1002.1C280.69 998.644 277.603 994.3 275.353 989.067C273.102 983.833 271.977 977.71 271.977 970.698C271.977 963.79 273.102 957.85 275.353 952.878C277.603 947.906 280.56 943.824 284.223 940.632C287.886 937.44 292.073 935.085 296.783 933.567C301.493 932.049 306.308 931.291 311.227 931.291C316.774 931.291 321.824 932.128 326.377 933.803C330.931 935.477 334.855 937.78 338.153 940.711C341.45 943.641 344.014 947.148 345.846 951.23C347.677 955.312 348.593 959.76 348.593 964.575C348.593 968.133 347.599 970.855 345.61 972.739C343.621 974.623 340.848 975.826 337.289 976.35L298.51 982.159C299.661 985.613 302.016 988.203 305.575 989.93C309.134 991.657 313.216 992.521 317.821 992.521C322.112 992.521 326.168 991.971 329.989 990.872C333.809 989.773 336.923 988.491 339.33 987.026C341.005 988.072 342.418 989.538 343.569 991.422C344.72 993.306 345.296 995.294 345.296 997.388C345.296 1002.1 343.098 1005.6 338.702 1007.91C335.353 1009.69 331.585 1010.89 327.398 1011.52C323.211 1012.15 319.286 1012.46 315.623 1012.46ZM311.227 950.759C308.715 950.759 306.543 951.177 304.712 952.015C302.88 952.852 301.388 953.925 300.237 955.233C299.086 956.541 298.222 958.007 297.647 959.629C297.071 961.251 296.731 962.9 296.626 964.575L323.473 960.179C323.159 958.085 322.008 955.992 320.019 953.899C318.03 951.805 315.1 950.759 311.227 950.759Z" fill="#3f0962" fill-rule="nonzero" opacity="1" stroke="none" vectornator:layerName="path"/>
<path d="M438.868 938.042C440.019 937.518 441.825 936.916 444.284 936.236C446.744 935.556 449.23 935.216 451.742 935.216C456.138 935.216 459.801 935.87 462.732 937.178C465.663 938.486 467.442 940.397 468.07 942.909C469.221 947.2 470.294 951.203 471.288 954.919C472.283 958.635 473.251 962.193 474.193 965.595C475.135 968.997 476.051 972.372 476.94 975.722C477.83 979.071 478.694 982.577 479.531 986.241L480.316 986.241C481.258 979.856 482.095 973.759 482.828 967.95C483.561 962.141 484.241 956.437 484.869 950.837C485.497 945.237 486.125 939.69 486.753 934.195C487.381 928.7 488.009 923.127 488.637 917.475C492.51 915.277 496.644 914.178 501.04 914.178C504.913 914.178 508.262 915.015 511.088 916.69C513.914 918.364 515.327 921.19 515.327 925.168C515.327 927.47 515.092 930.741 514.62 934.98C514.149 939.219 513.522 943.955 512.736 949.189C511.951 954.422 511.036 959.917 509.989 965.674C508.942 971.43 507.843 976.925 506.692 982.159C505.541 987.392 504.363 992.128 503.159 996.367C501.956 1000.61 500.831 1003.88 499.784 1006.18C498.214 1007.64 495.65 1008.85 492.091 1009.79C488.532 1010.73 484.869 1011.2 481.101 1011.2C476.182 1011.2 472.021 1010.55 468.619 1009.24C465.218 1007.93 463.151 1006.07 462.418 1003.67C461.057 999.481 459.592 994.509 458.022 988.753C456.452 982.996 454.777 976.664 452.998 969.756C451.533 976.559 450.015 983.205 448.445 989.695C446.875 996.184 445.462 1001.68 444.206 1006.18C442.636 1007.64 440.281 1008.85 437.141 1009.79C434.001 1010.73 430.547 1011.2 426.779 1011.2C422.069 1011.2 417.804 1010.55 413.983 1009.24C410.163 1007.93 407.677 1006.07 406.526 1003.67C405.584 1001.78 404.564 998.984 403.464 995.268C402.365 991.552 401.24 987.313 400.089 982.551C398.938 977.789 397.76 972.634 396.556 967.087C395.353 961.539 394.254 955.992 393.26 950.445C392.265 944.897 391.349 939.481 390.512 934.195C389.675 928.909 389.047 924.069 388.628 919.673C390.093 918.312 392.134 917.056 394.751 915.905C397.368 914.753 400.194 914.178 403.229 914.178C407.206 914.178 410.477 915.041 413.041 916.768C415.606 918.495 417.202 921.4 417.83 925.482C419.505 936.158 420.891 945.054 421.99 952.172C423.09 959.289 423.979 965.124 424.659 969.677C425.34 974.23 425.837 977.763 426.151 980.275C426.465 982.787 426.779 984.775 427.093 986.241L427.878 986.241C428.82 982.054 429.71 978.181 430.547 974.623C431.384 971.064 432.248 967.479 433.137 963.868C434.027 960.257 434.943 956.384 435.885 952.25C436.827 948.116 437.821 943.38 438.868 938.042Z" fill="#3f0962" fill-rule="nonzero" opacity="1" stroke="none" vectornator:layerName="path"/>
<path d="M527.102 912.451C527.102 908.473 528.436 905.124 531.106 902.403C533.775 899.681 537.307 898.321 541.703 898.321C546.099 898.321 549.631 899.681 552.301 902.403C554.97 905.124 556.304 908.473 556.304 912.451C556.304 916.428 554.97 919.777 552.301 922.499C549.631 925.22 546.099 926.581 541.703 926.581C537.307 926.581 533.775 925.22 531.106 922.499C528.436 919.777 527.102 916.428 527.102 912.451ZM555.048 1009.79C553.897 1010 552.196 1010.29 549.946 1010.65C547.695 1011.02 545.419 1011.2 543.116 1011.2C540.813 1011.2 538.746 1011.05 536.915 1010.73C535.083 1010.42 533.539 1009.79 532.283 1008.85C531.027 1007.91 530.059 1006.62 529.379 1005C528.698 1003.38 528.358 1001.26 528.358 998.644L528.358 934.745C529.509 934.535 531.21 934.247 533.461 933.881C535.711 933.515 537.987 933.332 540.29 933.332C542.593 933.332 544.66 933.489 546.492 933.803C548.323 934.117 549.867 934.745 551.123 935.687C552.379 936.629 553.347 937.911 554.028 939.533C554.708 941.155 555.048 943.275 555.048 945.892L555.048 1009.79Z" fill="#3f0962" fill-rule="nonzero" opacity="1" stroke="none" vectornator:layerName="path"/>
<path d="M574.673 1009.95C572.998 1008.48 571.664 1006.76 570.67 1004.77C569.675 1002.78 569.178 1000.53 569.178 998.016C569.178 995.922 569.675 993.855 570.67 991.814C571.664 989.773 572.894 987.863 574.359 986.084L601.363 954.37L572.475 954.37C571.847 953.218 571.245 951.753 570.67 949.974C570.094 948.194 569.806 946.258 569.806 944.165C569.806 940.501 570.617 937.858 572.24 936.236C573.862 934.614 576.034 933.803 578.755 933.803L628.21 933.803C629.885 935.268 631.219 936.995 632.214 938.984C633.208 940.972 633.705 943.223 633.705 945.735C633.705 947.828 633.208 949.895 632.214 951.936C631.219 953.977 629.989 955.887 628.524 957.667L602.148 989.381L632.92 989.381C633.548 990.532 634.15 991.997 634.726 993.777C635.301 995.556 635.589 997.492 635.589 999.586C635.589 1003.25 634.778 1005.89 633.156 1007.51C631.533 1009.14 629.361 1009.95 626.64 1009.95L574.673 1009.95Z" fill="#3f0962" fill-rule="nonzero" opacity="1" stroke="none" vectornator:layerName="path"/>
<path d="M680.177 992.992C681.956 992.992 683.919 992.808 686.064 992.442C688.21 992.076 689.806 991.579 690.853 990.951L690.853 978.391L679.549 979.333C676.618 979.542 674.211 980.17 672.327 981.217C670.443 982.263 669.501 983.833 669.501 985.927C669.501 988.02 670.312 989.721 671.934 991.029C673.557 992.337 676.304 992.992 680.177 992.992ZM678.921 931.291C684.573 931.291 689.728 931.866 694.385 933.018C699.043 934.169 703.02 935.922 706.317 938.277C709.615 940.632 712.153 943.615 713.932 947.226C715.711 950.837 716.601 955.102 716.601 960.022L716.601 995.19C716.601 997.911 715.842 1000.14 714.324 1001.86C712.807 1003.59 711.001 1005.08 708.908 1006.34C702.105 1010.42 692.528 1012.46 680.177 1012.46C674.63 1012.46 669.632 1011.94 665.183 1010.89C660.735 1009.84 656.915 1008.27 653.722 1006.18C650.53 1004.09 648.071 1001.42 646.343 998.173C644.616 994.928 643.753 991.16 643.753 986.869C643.753 979.647 645.899 974.099 650.19 970.227C654.481 966.354 661.128 963.947 670.129 963.005L690.696 960.807L690.696 959.708C690.696 956.672 689.362 954.5 686.692 953.192C684.023 951.884 680.177 951.23 675.153 951.23C671.176 951.23 667.303 951.648 663.535 952.486C659.767 953.323 656.365 954.37 653.33 955.626C651.969 954.684 650.818 953.244 649.876 951.308C648.934 949.372 648.463 947.357 648.463 945.264C648.463 942.542 649.117 940.37 650.425 938.748C651.734 937.126 653.749 935.739 656.47 934.588C659.505 933.436 663.09 932.599 667.224 932.076C671.359 931.552 675.258 931.291 678.921 931.291Z" fill="#3f0962" fill-rule="nonzero" opacity="1" stroke="none" vectornator:layerName="path"/>
<path d="M759.619 1009.79C758.572 1010.1 756.924 1010.42 754.673 1010.73C752.423 1011.05 750.094 1011.2 747.687 1011.2C745.384 1011.2 743.317 1011.05 741.486 1010.73C739.654 1010.42 738.11 1009.79 736.854 1008.85C735.598 1007.91 734.63 1006.62 733.949 1005C733.269 1003.38 732.929 1001.26 732.929 998.644L732.929 951.544C732.929 949.136 733.374 947.069 734.264 945.342C735.153 943.615 736.435 942.071 738.11 940.711C739.785 939.35 741.852 938.12 744.312 937.021C746.771 935.922 749.414 934.954 752.24 934.117C755.066 933.279 757.997 932.625 761.032 932.154C764.067 931.683 767.103 931.448 770.138 931.448C775.162 931.448 779.139 932.416 782.07 934.352C785.001 936.288 786.466 939.455 786.466 943.851C786.466 945.316 786.257 946.755 785.838 948.168C785.419 949.581 784.896 950.863 784.268 952.015C782.07 952.015 779.82 952.119 777.517 952.329C775.214 952.538 772.964 952.852 770.766 953.271C768.568 953.689 766.501 954.134 764.564 954.605C762.628 955.076 760.98 955.626 759.619 956.254L759.619 1009.79Z" fill="#3f0962" fill-rule="nonzero" opacity="1" stroke="none" vectornator:layerName="path"/>
<path d="M791.176 971.797C791.176 964.889 792.223 958.896 794.316 953.82C796.409 948.744 799.314 944.531 803.029 941.182C806.745 937.832 811.089 935.346 816.06 933.724C821.032 932.102 826.396 931.291 832.153 931.291C834.246 931.291 836.287 931.474 838.276 931.84C840.265 932.206 841.887 932.651 843.143 933.175L843.143 907.741C844.19 907.427 845.864 907.086 848.167 906.72C850.47 906.354 852.825 906.171 855.232 906.171C857.535 906.171 859.602 906.328 861.433 906.642C863.265 906.956 864.809 907.584 866.065 908.526C867.321 909.468 868.263 910.75 868.891 912.372C869.519 913.994 869.833 916.114 869.833 918.731L869.833 993.149C869.833 998.068 867.53 1001.99 862.925 1004.92C859.89 1006.91 855.965 1008.67 851.15 1010.18C846.335 1011.7 840.788 1012.46 834.508 1012.46C827.705 1012.46 821.608 1011.52 816.217 1009.63C810.827 1007.75 806.274 1005.03 802.558 1001.47C798.843 997.911 796.017 993.646 794.08 988.674C792.144 983.702 791.176 978.077 791.176 971.797ZM835.764 952.172C830.112 952.172 825.768 953.794 822.733 957.039C819.698 960.283 818.18 965.203 818.18 971.797C818.18 978.286 819.593 983.179 822.419 986.476C825.245 989.773 829.327 991.422 834.665 991.422C836.549 991.422 838.25 991.134 839.767 990.558C841.285 989.982 842.463 989.328 843.3 988.596L843.3 954.056C841.207 952.8 838.695 952.172 835.764 952.172Z" fill="#3f0962" fill-rule="nonzero" opacity="1" stroke="none" vectornator:layerName="path"/>
</g>
</g>
</svg>
